<?xml version="1.0" encoding="UTF-8" standalone="no"?><svg xmlns="http://www.w3.org/2000/svg" xmlns:xlink="http://www.w3.org/1999/xlink" contentStyleType="text/css" height="743px" preserveAspectRatio="none" style="width:495px;height:743px;background:#FFFFFF;" version="1.1" viewBox="0 0 495 743" width="495px" zoomAndPan="magnify"><defs/><g><!--MD5=[f0489d53b3290ddc38b0fd0cf4d5ba6f]
cluster component: rpi_control_frmwrk - structure - LCD-Task--><g id="cluster_component: rpi_control_frmwrk - structure - LCD-Task"><rect fill="none" height="730" rx="2.5" ry="2.5" style="stroke:#181818;stroke-width:1.0;" width="482" x="7" y="7"/><path d="M393,7 L393,17.6094 L383,27.6094 L7,27.6094 " fill="none" style="stroke:#181818;stroke-width:1.0;"/><text fill="#000000" font-family="sans-serif" font-size="14" font-weight="bold" lengthAdjust="spacing" textLength="376" x="10" y="22.5332">component: rpi_control_frmwrk - structure - LCD-Task</text></g><!--MD5=[9681dc6e01e10c6b4fe06895ae94f592]
cluster UI--><g id="cluster_UI"><path d="M33.5,218 L48.5,218 A3.75,3.75 0 0 1 51,220.5 L58,241.6094 L462.5,241.6094 A2.5,2.5 0 0 1 465,244.1094 L465,543.5 A2.5,2.5 0 0 1 462.5,546 L33.5,546 A2.5,2.5 0 0 1 31,543.5 L31,220.5 A2.5,2.5 0 0 1 33.5,218 " fill="none" style="stroke:#000000;stroke-width:1.5;"/><line style="stroke:#000000;stroke-width:1.5;" x1="31" x2="58" y1="241.6094" y2="241.6094"/><text fill="#000000" font-family="sans-serif" font-size="14" font-weight="bold" lengthAdjust="spacing" textLength="14" x="35" y="234.5332">UI</text></g><!--MD5=[cae1f897efeef0ee679e88e502e44546]
cluster LCD_Task--><g id="cluster_LCD_Task"><rect fill="#DDDDDD" height="260" rx="2.5" ry="2.5" style="stroke:#181818;stroke-width:1.0;" width="386" x="55" y="262"/><rect fill="#DDDDDD" height="10" style="stroke:#181818;stroke-width:1.0;" width="15" x="421" y="267"/><rect fill="#DDDDDD" height="2" style="stroke:#181818;stroke-width:1.0;" width="4" x="419" y="269"/><rect fill="#DDDDDD" height="2" style="stroke:#181818;stroke-width:1.0;" width="4" x="419" y="273"/><text fill="#000000" font-family="sans-serif" font-size="14" font-weight="bold" lengthAdjust="spacing" textLength="68" x="214" y="289.5332">LCD_Task</text></g><!--MD5=[24862688b7912ea88a85823be436e46b]
cluster MCU-Task-Controller--><g id="cluster_MCU-Task-Controller"><path d="M261.5,596 L408.5,596 A3.75,3.75 0 0 1 411,598.5 L418,619.6094 L462.5,619.6094 A2.5,2.5 0 0 1 465,622.1094 L465,710.5 A2.5,2.5 0 0 1 462.5,713 L261.5,713 A2.5,2.5 0 0 1 259,710.5 L259,598.5 A2.5,2.5 0 0 1 261.5,596 " fill="none" style="stroke:#000000;stroke-width:1.5;"/><line style="stroke:#000000;stroke-width:1.5;" x1="259" x2="418" y1="619.6094" y2="619.6094"/><text fill="#000000" font-family="sans-serif" font-size="14" font-weight="bold" lengthAdjust="spacing" textLength="146" x="263" y="612.5332">MCU-Task-Controller</text></g><!--MD5=[425f2006a46d27c73de4bfa1f7e62e21]
cluster Kernel--><g id="cluster_Kernel"><path d="M48.5,51 L96.5,51 A3.75,3.75 0 0 1 99,53.5 L106,74.6094 L199.5,74.6094 A2.5,2.5 0 0 1 202,77.1094 L202,165.5 A2.5,2.5 0 0 1 199.5,168 L48.5,168 A2.5,2.5 0 0 1 46,165.5 L46,53.5 A2.5,2.5 0 0 1 48.5,51 " fill="none" style="stroke:#000000;stroke-width:1.5;"/><line style="stroke:#000000;stroke-width:1.5;" x1="46" x2="106" y1="74.6094" y2="74.6094"/><text fill="#000000" font-family="sans-serif" font-size="14" font-weight="bold" lengthAdjust="spacing" textLength="47" x="50" y="67.5332">Kernel</text></g><!--MD5=[61c41a14a0f790ada34cbd71756aea65]
cluster Driver--><g id="cluster_Driver"><path d="M54.5,596 L99.5,596 A3.75,3.75 0 0 1 102,598.5 L109,619.6094 L199.5,619.6094 A2.5,2.5 0 0 1 202,622.1094 L202,710.5 A2.5,2.5 0 0 1 199.5,713 L54.5,713 A2.5,2.5 0 0 1 52,710.5 L52,598.5 A2.5,2.5 0 0 1 54.5,596 " fill="none" style="stroke:#000000;stroke-width:1.5;"/><line style="stroke:#000000;stroke-width:1.5;" x1="52" x2="109" y1="619.6094" y2="619.6094"/><text fill="#000000" font-family="sans-serif" font-size="14" font-weight="bold" lengthAdjust="spacing" textLength="44" x="56" y="612.5332">Driver</text></g><!--MD5=[0c3933294a5584922fd5b97341eb39c8]
entity fifo--><g id="elem_fifo"><rect fill="#F1F1F1" height="65.2188" rx="2.5" ry="2.5" style="stroke:#181818;stroke-width:0.5;" width="126" x="293" y="298"/><rect fill="#F1F1F1" height="10" style="stroke:#181818;stroke-width:0.5;" width="15" x="399" y="303"/><rect fill="#F1F1F1" height="2" style="stroke:#181818;stroke-width:0.5;" width="4" x="397" y="305"/><rect fill="#F1F1F1" height="2" style="stroke:#181818;stroke-width:0.5;" width="4" x="397" y="309"/><text fill="#000000" font-family="sans-serif" font-size="14" lengthAdjust="spacing" textLength="48" x="308" y="332.5332">«FIFO»</text><text fill="#000000" font-family="sans-serif" font-size="14" lengthAdjust="spacing" textLength="86" x="308" y="350.1426">Text Line Fifo</text></g><!--MD5=[75ab4b0ac1f75c462f5db4fd1620605d]
entity slot_line--><g id="elem_slot_line"><rect fill="#F1F1F1" height="65.2188" rx="2.5" ry="2.5" style="stroke:#181818;stroke-width:0.5;" width="105" x="71.5" y="298"/><rect fill="#F1F1F1" height="10" style="stroke:#181818;stroke-width:0.5;" width="15" x="156.5" y="303"/><rect fill="#F1F1F1" height="2" style="stroke:#181818;stroke-width:0.5;" width="4" x="154.5" y="305"/><rect fill="#F1F1F1" height="2" style="stroke:#181818;stroke-width:0.5;" width="4" x="154.5" y="309"/><text fill="#000000" font-family="sans-serif" font-size="14" lengthAdjust="spacing" textLength="53" x="86.5" y="332.5332">«SLOT»</text><text fill="#000000" font-family="sans-serif" font-size="14" lengthAdjust="spacing" textLength="65" x="86.5" y="350.1426">NEW-LINE</text></g><!--MD5=[2f9f41d9c5ad817105798ee009302b84]
entity control_task--><g id="elem_control_task"><rect fill="#F1F1F1" height="65.2188" rx="2.5" ry="2.5" style="stroke:#181818;stroke-width:0.5;" width="122" x="303" y="441"/><rect fill="#F1F1F1" height="10" style="stroke:#181818;stroke-width:0.5;" width="15" x="405" y="446"/><rect fill="#F1F1F1" height="2" style="stroke:#181818;stroke-width:0.5;" width="4" x="403" y="448"/><rect fill="#F1F1F1" height="2" style="stroke:#181818;stroke-width:0.5;" width="4" x="403" y="452"/><text fill="#000000" font-family="sans-serif" font-size="14" lengthAdjust="spacing" textLength="47" x="318" y="475.5332">«Task»</text><text fill="#000000" font-family="sans-serif" font-size="14" lengthAdjust="spacing" textLength="82" x="318" y="493.1426">Control-Task</text></g><!--MD5=[d7a9d39ad06b899856de69d8a0b4d78c]
entity lcd_driver--><g id="elem_lcd_driver"><rect fill="#F1F1F1" height="65.2188" rx="2.5" ry="2.5" style="stroke:#181818;stroke-width:0.5;" width="111" x="71.5" y="441"/><rect fill="#F1F1F1" height="10" style="stroke:#181818;stroke-width:0.5;" width="15" x="162.5" y="446"/><rect fill="#F1F1F1" height="2" style="stroke:#181818;stroke-width:0.5;" width="4" x="160.5" y="448"/><rect fill="#F1F1F1" height="2" style="stroke:#181818;stroke-width:0.5;" width="4" x="160.5" y="452"/><text fill="#000000" font-family="sans-serif" font-size="14" lengthAdjust="spacing" textLength="54" x="86.5" y="475.5332">«Driver»</text><text fill="#000000" font-family="sans-serif" font-size="14" lengthAdjust="spacing" textLength="71" x="86.5" y="493.1426">LCD-Driver</text></g><!--MD5=[273985dacfadf938551df6be5ab6c738]
entity task_controller--><g id="elem_task_controller"><rect fill="#F1F1F1" height="65.2188" rx="2.5" ry="2.5" style="stroke:#181818;stroke-width:0.5;" width="173" x="275.5" y="632"/><rect fill="#F1F1F1" height="10" style="stroke:#181818;stroke-width:0.5;" width="15" x="428.5" y="637"/><rect fill="#F1F1F1" height="2" style="stroke:#181818;stroke-width:0.5;" width="4" x="426.5" y="639"/><rect fill="#F1F1F1" height="2" style="stroke:#181818;stroke-width:0.5;" width="4" x="426.5" y="643"/><text fill="#000000" font-family="sans-serif" font-size="14" lengthAdjust="spacing" textLength="78" x="290.5" y="666.5332">«Controller»</text><text fill="#000000" font-family="sans-serif" font-size="14" lengthAdjust="spacing" textLength="133" x="290.5" y="684.1426">MCU-Task-Controller</text></g><!--MD5=[9c2095476b4fe227be2bfa51a11a4f31]
entity signal_slot--><g id="elem_signal_slot"><a href="www.google.de" target="_top" title="This is Dog" xlink:actuate="onRequest" xlink:href="www.google.de" xlink:show="new" xlink:title="This is Dog" xlink:type="simple"><rect fill="#F1F1F1" height="65.2188" rx="2.5" ry="2.5" style="stroke:#181818;stroke-width:0.5;" width="124" x="62" y="87"/><rect fill="#F1F1F1" height="10" style="stroke:#181818;stroke-width:0.5;" width="15" x="166" y="92"/><rect fill="#F1F1F1" height="2" style="stroke:#181818;stroke-width:0.5;" width="4" x="164" y="94"/><rect fill="#F1F1F1" height="2" style="stroke:#181818;stroke-width:0.5;" width="4" x="164" y="98"/><text fill="#000000" font-family="sans-serif" font-size="14" lengthAdjust="spacing" textLength="84" x="77" y="121.5332">«Signal-Slot»</text><text fill="#000000" font-family="sans-serif" font-size="14" lengthAdjust="spacing" textLength="73" x="77" y="139.1426">Signal-SLot</text></a></g><!--MD5=[b17ffb53d0aa0ff4f68e1e240137bc9f]
entity gpio_driver--><g id="elem_gpio_driver"><rect fill="#F1F1F1" height="65.2188" rx="2.5" ry="2.5" style="stroke:#181818;stroke-width:0.5;" width="117" x="68.5" y="632"/><rect fill="#F1F1F1" height="10" style="stroke:#181818;stroke-width:0.5;" width="15" x="165.5" y="637"/><rect fill="#F1F1F1" height="2" style="stroke:#181818;stroke-width:0.5;" width="4" x="163.5" y="639"/><rect fill="#F1F1F1" height="2" style="stroke:#181818;stroke-width:0.5;" width="4" x="163.5" y="643"/><text fill="#000000" font-family="sans-serif" font-size="14" lengthAdjust="spacing" textLength="54" x="83.5" y="666.5332">«Driver»</text><text fill="#000000" font-family="sans-serif" font-size="14" lengthAdjust="spacing" textLength="77" x="83.5" y="684.1426">GPIO-Driver</text></g><!--MD5=[f6e7969e0a6476a601012550b918d89b]
link slot_line to fifo--><g id="link_slot_line_fifo"><path codeLine="31" d="M176.64,330.5 C209.52,330.5 252.19,330.5 287.66,330.5 " fill="none" id="slot_line-to-fifo" style="stroke:#181818;stroke-width:1.0;"/><polygon fill="#181818" points="292.84,330.5,283.84,326.5,287.84,330.5,283.84,334.5,292.84,330.5" style="stroke:#181818;stroke-width:1.0;"/><text fill="#000000" font-family="sans-serif" font-size="13" lengthAdjust="spacing" textLength="80" x="194.75" y="323.9951">store new line</text></g><!--MD5=[1dc705ca0fa8504a48ea58c0c5e6a93a]
reverse link fifo to control_task--><g id="link_fifo_control_task"><path codeLine="33" d="M358.08,368.16 C359.36,390.74 360.99,419.4 362.21,440.96 " fill="none" id="fifo-backto-control_task" style="stroke:#181818;stroke-width:1.0;"/><polygon fill="#181818" points="357.8,363.14,354.2937,372.3436,358.071,368.1326,362.282,371.9099,357.8,363.14" style="stroke:#181818;stroke-width:1.0;"/><text fill="#000000" font-family="sans-serif" font-size="13" lengthAdjust="spacing" textLength="78" x="361" y="407.4951">read next line</text></g><!--MD5=[3549a95106796d5392b2376064dd569d]
reverse link lcd_driver to control_task--><g id="link_lcd_driver_control_task"><path codeLine="34" d="M187.72,473.5 C223.08,473.5 267.54,473.5 302.96,473.5 " fill="none" id="lcd_driver-backto-control_task" style="stroke:#181818;stroke-width:1.0;"/><polygon fill="#181818" points="182.57,473.5,191.57,477.5,187.57,473.5,191.57,469.5,182.57,473.5" style="stroke:#181818;stroke-width:1.0;"/><text fill="#000000" font-family="sans-serif" font-size="13" lengthAdjust="spacing" textLength="84" x="200.75" y="466.9951">update display</text></g><!--MD5=[f51a9d5e8dca7b1afb255cc8386e7ac5]
link signal_slot to slot_line--><g id="link_signal_slot_slot_line"><path codeLine="61" d="M124,152.24 C124,189.95 124,252.74 124,292.58 " fill="none" id="signal_slot-to-slot_line" style="stroke:#181818;stroke-width:1.0;"/><polygon fill="#181818" points="124,297.8,128,288.8,124,292.8,120,288.8,124,297.8" style="stroke:#181818;stroke-width:1.0;"/><text fill="#000000" font-family="sans-serif" font-size="13" lengthAdjust="spacing" textLength="118" x="125" y="198.4951">SIGNAL(NEW-LINE)</text></g><!--MD5=[788fbadc8fbd6dee11f5abe0cea8237d]
reverse link control_task to task_controller--><g id="link_control_task_task_controller"><path codeLine="62" d="M363.61,511.17 C363.24,546.21 362.69,598.47 362.34,631.76 " fill="none" id="control_task-backto-task_controller" style="stroke:#181818;stroke-width:1.0;"/><polygon fill="#181818" points="363.67,506.13,359.593,515.0954,363.6271,511.1298,367.5927,515.164,363.67,506.13" style="stroke:#181818;stroke-width:1.0;"/><text fill="#000000" font-family="sans-serif" font-size="13" lengthAdjust="spacing" textLength="59" x="364" y="576.4951">schedules</text></g><!--MD5=[2edffdcee056905c939edc54b38050f8]
link lcd_driver to gpio_driver--><g id="link_lcd_driver_gpio_driver"><path codeLine="63" d="M127,506.13 C127,539.39 127,591.65 127,626.72 " fill="none" id="lcd_driver-to-gpio_driver" style="stroke:#181818;stroke-width:1.0;"/><polygon fill="#181818" points="127,631.76,131,622.76,127,626.76,123,622.76,127,631.76" style="stroke:#181818;stroke-width:1.0;"/></g><!--MD5=[78247e0807c80eed43452bba4a80da82]
@startuml rpi_control_frmwrk_diagram_component_lcd_task

skinparam monochrome true
'skinparam linetype ortho
skinparam style strictuml

frame "component: rpi_control_frmwrk - structure - LCD-Task" {

    package "UI" {
        component LCD_Task #DDDDDD {

            component fifo [
                <<FIFO>>
                Text Line Fifo
            ]

            component slot_line [
                <<SLOT>>
                NEW-LINE
            ]

            component control_task [
                <<Task>>
                Control-Task
            ]

            component lcd_driver [
                <<Driver>>
                LCD-Driver
            ]

            slot_line -right-> fifo : store new line

            control_task -up-> fifo : read next line
            control_task -left-> lcd_driver : update display
        }
    }

    package "MCU-Task-Controller" {
        component task_controller[
            <<Controller>>
            MCU-Task-Controller
        ]
    }

    package "Kernel" {
        component signal_slot [
            <<Signal-Slot>>
            Signal-SLot
        ]

        url of signal_slot is [[www.google.de{This is Dog}]]
    }

    package "Driver" {
        component gpio_driver [
            <<Driver>>
            GPIO-Driver
        ]
    }

    signal_slot -down-> slot_line : SIGNAL(NEW-LINE)
    task_controller -up-> control_task : schedules
    lcd_driver -down-> gpio_driver

}

@enduml

@startuml rpi_control_frmwrk_diagram_component_lcd_task

skinparam monochrome true
skinparam style strictuml

frame "component: rpi_control_frmwrk - structure - LCD-Task" {

    package "UI" {
        component LCD_Task #DDDDDD {

            component fifo [
                <<FIFO>>
                Text Line Fifo
            ]

            component slot_line [
                <<SLOT>>
                NEW-LINE
            ]

            component control_task [
                <<Task>>
                Control-Task
            ]

            component lcd_driver [
                <<Driver>>
                LCD-Driver
            ]

            slot_line -right-> fifo : store new line

            control_task -up-> fifo : read next line
            control_task -left-> lcd_driver : update display
        }
    }

    package "MCU-Task-Controller" {
        component task_controller[
            <<Controller>>
            MCU-Task-Controller
        ]
    }

    package "Kernel" {
        component signal_slot [
            <<Signal-Slot>>
            Signal-SLot
        ]

        url of signal_slot is [[www.google.de{This is Dog}]]
    }

    package "Driver" {
        component gpio_driver [
            <<Driver>>
            GPIO-Driver
        ]
    }

    signal_slot -down-> slot_line : SIGNAL(NEW-LINE)
    task_controller -up-> control_task : schedules
    lcd_driver -down-> gpio_driver

}

@enduml

PlantUML version 1.2022.7(Mon Aug 22 19:01:30 CEST 2022)
(GPL source distribution)
Java Runtime: OpenJDK Runtime Environment
JVM: OpenJDK Client VM
Default Encoding: Cp1252
Language: de
Country: DE
--></g></svg>