<?xml version="1.0" encoding="UTF-8" standalone="no"?><svg xmlns="http://www.w3.org/2000/svg" xmlns:xlink="http://www.w3.org/1999/xlink" contentStyleType="text/css" height="609px" preserveAspectRatio="none" style="width:414px;height:609px;background:#FFFFFF;" version="1.1" viewBox="0 0 414 609" width="414px" zoomAndPan="magnify"><defs/><g><rect fill="#FFFFFF" height="588.5752" style="stroke:#000000;stroke-width:1.5;" width="393" x="10" y="10"/><path d="M401,10 L401,19.4883 L391,29.4883 L10,29.4883 " fill="none" style="stroke:#000000;stroke-width:1.5;"/><text fill="#000000" font-family="sans-serif" font-size="14" lengthAdjust="spacing" textLength="381" x="13" y="24.5352">activity: CFG-File-Parser - Runtime - General Operation</text><ellipse cx="88" cy="46.4883" fill="#222222" rx="10" ry="10" style="stroke:#222222;stroke-width:1.0;"/><rect fill="#F1F1F1" height="34.1328" rx="12.5" ry="12.5" style="stroke:#181818;stroke-width:0.5;" width="67" x="54.5" y="76.4883"/><text fill="#000000" font-family="sans-serif" font-size="12" lengthAdjust="spacing" textLength="47" x="64.5" y="98.0898">Initialize</text><polygon fill="#F1F1F1" points="37.5,174.6211,148.5,174.6211,138.5,191.6875,148.5,208.7539,37.5,208.7539" style="stroke:#181818;stroke-width:0.5;"/><text fill="#000000" font-family="sans-serif" font-size="12" lengthAdjust="spacing" textLength="81" x="47.5" y="196.2227">Wait for signal</text><rect fill="#F1F1F1" height="34.1328" rx="12.5" ry="12.5" style="stroke:#181818;stroke-width:0.5;" width="74" x="51" y="228.7539"/><text fill="#000000" font-family="sans-serif" font-size="12" lengthAdjust="spacing" textLength="54" x="61" y="250.3555">Open File</text><rect fill="#F1F1F1" height="34.1328" rx="12.5" ry="12.5" style="stroke:#181818;stroke-width:0.5;" width="94" x="41" y="339.0215"/><text fill="#000000" font-family="sans-serif" font-size="12" lengthAdjust="spacing" textLength="74" x="51" y="360.623">Parse Object</text><polygon fill="#F1F1F1" points="45.5,402.1768,130.5,402.1768,140.5,419.2432,130.5,436.3096,45.5,436.3096" style="stroke:#181818;stroke-width:0.5;"/><text fill="#000000" font-family="sans-serif" font-size="12" lengthAdjust="spacing" textLength="65" x="55.5" y="423.7783">Send Signal</text><polygon fill="#F1F1F1" points="54,282.8867,122,282.8867,134,294.8867,122,306.8867,54,306.8867,42,294.8867,54,282.8867" style="stroke:#181818;stroke-width:0.5;"/><text fill="#000000" font-family="sans-serif" font-size="11" lengthAdjust="spacing" textLength="18" x="92" y="317.5215">yes</text><text fill="#000000" font-family="sans-serif" font-size="11" lengthAdjust="spacing" textLength="68" x="54" y="299.0439">line available</text><text fill="#000000" font-family="sans-serif" font-size="11" lengthAdjust="spacing" textLength="14" x="28" y="292.5664">no</text><rect fill="#F1F1F1" height="34.1328" rx="12.5" ry="12.5" style="stroke:#181818;stroke-width:0.5;" width="74" x="51" y="478.3096"/><text fill="#000000" font-family="sans-serif" font-size="12" lengthAdjust="spacing" textLength="54" x="61" y="499.9111">Close File</text><polygon fill="#F1F1F1" points="34.5,532.4424,141.5,532.4424,151.5,549.5088,141.5,566.5752,34.5,566.5752" style="stroke:#181818;stroke-width:0.5;"/><text fill="#000000" font-family="sans-serif" font-size="12" lengthAdjust="spacing" textLength="87" x="44.5" y="554.0439">Send Complete</text><polygon fill="#F1F1F1" points="48,130.6211,128,130.6211,140,142.6211,128,154.6211,48,154.6211,36,142.6211,48,130.6211" style="stroke:#181818;stroke-width:0.5;"/><text fill="#000000" font-family="sans-serif" font-size="11" lengthAdjust="spacing" textLength="80" x="48" y="146.7783">task is running</text><line style="stroke:#181818;stroke-width:1.0;" x1="88" x2="88" y1="56.4883" y2="76.4883"/><polygon fill="#181818" points="84,66.4883,88,76.4883,92,66.4883,88,70.4883" style="stroke:#181818;stroke-width:1.0;"/><line style="stroke:#181818;stroke-width:1.0;" x1="88" x2="88" y1="208.7539" y2="228.7539"/><polygon fill="#181818" points="84,218.7539,88,228.7539,92,218.7539,88,222.7539" style="stroke:#181818;stroke-width:1.0;"/><line style="stroke:#181818;stroke-width:1.0;" x1="88" x2="88" y1="373.1543" y2="402.1768"/><polygon fill="#181818" points="84,392.1768,88,402.1768,92,392.1768,88,396.1768" style="stroke:#181818;stroke-width:1.0;"/><line style="stroke:#181818;stroke-width:1.0;" x1="88" x2="88" y1="306.8867" y2="339.0215"/><polygon fill="#181818" points="84,329.0215,88,339.0215,92,329.0215,88,333.0215" style="stroke:#181818;stroke-width:1.0;"/><line style="stroke:#181818;stroke-width:1.0;" x1="88" x2="88" y1="436.3096" y2="446.3096"/><line style="stroke:#181818;stroke-width:1.0;" x1="88" x2="152.5" y1="446.3096" y2="446.3096"/><polygon fill="#181818" points="148.5,382.1768,152.5,372.1768,156.5,382.1768,152.5,378.1768" style="stroke:#181818;stroke-width:1.0;"/><line style="stroke:#181818;stroke-width:1.0;" x1="152.5" x2="152.5" y1="294.8867" y2="446.3096"/><line style="stroke:#181818;stroke-width:1.0;" x1="152.5" x2="134" y1="294.8867" y2="294.8867"/><polygon fill="#181818" points="144,290.8867,134,294.8867,144,298.8867,140,294.8867" style="stroke:#181818;stroke-width:1.0;"/><line style="stroke:#181818;stroke-width:1.0;" x1="42" x2="29" y1="294.8867" y2="294.8867"/><polygon fill="#181818" points="25,368.1768,29,378.1768,33,368.1768,29,372.1768" style="stroke:#181818;stroke-width:1.0;"/><line style="stroke:#181818;stroke-width:1.0;" x1="29" x2="29" y1="294.8867" y2="458.3096"/><line style="stroke:#181818;stroke-width:1.0;" x1="29" x2="88" y1="458.3096" y2="458.3096"/><line style="stroke:#181818;stroke-width:1.0;" x1="88" x2="88" y1="458.3096" y2="478.3096"/><polygon fill="#181818" points="84,468.3096,88,478.3096,92,468.3096,88,472.3096" style="stroke:#181818;stroke-width:1.0;"/><line style="stroke:#181818;stroke-width:1.0;" x1="88" x2="88" y1="262.8867" y2="282.8867"/><polygon fill="#181818" points="84,272.8867,88,282.8867,92,272.8867,88,276.8867" style="stroke:#181818;stroke-width:1.0;"/><line style="stroke:#181818;stroke-width:1.0;" x1="88" x2="88" y1="512.4424" y2="532.4424"/><polygon fill="#181818" points="84,522.4424,88,532.4424,92,522.4424,88,526.4424" style="stroke:#181818;stroke-width:1.0;"/><line style="stroke:#181818;stroke-width:1.0;" x1="88" x2="88" y1="154.6211" y2="174.6211"/><polygon fill="#181818" points="84,164.6211,88,174.6211,92,164.6211,88,168.6211" style="stroke:#181818;stroke-width:1.0;"/><line style="stroke:#181818;stroke-width:1.0;" x1="88" x2="88" y1="566.5752" y2="576.5752"/><line style="stroke:#181818;stroke-width:1.0;" x1="88" x2="164.5" y1="576.5752" y2="576.5752"/><polygon fill="#181818" points="160.5,370.1768,164.5,360.1768,168.5,370.1768,164.5,366.1768" style="stroke:#181818;stroke-width:1.0;"/><line style="stroke:#181818;stroke-width:1.0;" x1="164.5" x2="164.5" y1="142.6211" y2="576.5752"/><line style="stroke:#181818;stroke-width:1.0;" x1="164.5" x2="140" y1="142.6211" y2="142.6211"/><polygon fill="#181818" points="150,138.6211,140,142.6211,150,146.6211,146,142.6211" style="stroke:#181818;stroke-width:1.0;"/><line style="stroke:#181818;stroke-width:1.0;" x1="88" x2="88" y1="110.6211" y2="130.6211"/><polygon fill="#181818" points="84,120.6211,88,130.6211,92,120.6211,88,124.6211" style="stroke:#181818;stroke-width:1.0;"/><!--MD5=[a8f396f6a2956642799a024fda246018]
@startuml cfg_file_parser_general_operation

'***************************************************************************

skinparam monochrome true
skinparam linetype ortho

'***************************************************************************

mainframe activity: CFG-File-Parser - Runtime - General Operation

'***************************************************************************

start
:Initialize;
while (task is running)
    :Wait for signal<
    :Open File;
    while (line available) is (yes)
        :Parse Object;
        :Send Signal>
    endwhile (no)
    :Close File;
    :Send Complete>
endwhile
  -[hidden]->
  detach

'***************************************************************************

@enduml

@startuml cfg_file_parser_general_operation


skinparam monochrome true
skinparam linetype ortho


mainframe activity: CFG-File-Parser - Runtime - General Operation


start
:Initialize;
while (task is running)
    :Wait for signal<
    :Open File;
    while (line available) is (yes)
        :Parse Object;
        :Send Signal>
    endwhile (no)
    :Close File;
    :Send Complete>
endwhile
  -[hidden]->
  detach


@enduml

PlantUML version 1.2022.7(Mon Aug 22 19:01:30 CEST 2022)
(GPL source distribution)
Java Runtime: OpenJDK Runtime Environment
JVM: OpenJDK 64-Bit Server VM
Default Encoding: UTF-8
Language: de
Country: DE
--></g></svg>