<?xml version="1.0" encoding="UTF-8" standalone="no"?><svg xmlns="http://www.w3.org/2000/svg" xmlns:xlink="http://www.w3.org/1999/xlink" contentStyleType="text/css" height="629px" preserveAspectRatio="none" style="width:414px;height:629px;background:#FFFFFF;" version="1.1" viewBox="0 0 414 629" width="414px" zoomAndPan="magnify"><defs/><g><rect fill="#FFFFFF" height="608.8955" style="stroke:#000000;stroke-width:1.5;" width="393" x="10" y="10"/><path d="M401,10 L401,19.4883 L391,29.4883 L10,29.4883 " fill="none" style="stroke:#000000;stroke-width:1.5;"/><text fill="#000000" font-family="sans-serif" font-size="14" lengthAdjust="spacing" textLength="381" x="13" y="24.5352">activity: CFG-File-Parser - Runtime - General Operation</text><ellipse cx="78.5" cy="46.4883" fill="#222222" rx="10" ry="10" style="stroke:#222222;stroke-width:1.0;"/><rect fill="#F1F1F1" height="34.1328" rx="12.5" ry="12.5" style="stroke:#181818;stroke-width:0.5;" width="67" x="45" y="76.4883"/><text fill="#000000" font-family="sans-serif" font-size="12" lengthAdjust="spacing" textLength="47" x="55" y="98.0898">Initialize</text><polygon fill="#F1F1F1" points="28,174.6211,139,174.6211,129,191.6875,139,208.7539,28,208.7539" style="stroke:#181818;stroke-width:0.5;"/><text fill="#000000" font-family="sans-serif" font-size="12" lengthAdjust="spacing" textLength="81" x="38" y="196.2227">Wait for signal</text><rect fill="#F1F1F1" height="34.1328" rx="12.5" ry="12.5" style="stroke:#181818;stroke-width:0.5;" width="74" x="41.5" y="228.7539"/><text fill="#000000" font-family="sans-serif" font-size="12" lengthAdjust="spacing" textLength="54" x="51.5" y="250.3555">Open File</text><rect fill="#F1F1F1" height="34.1328" rx="12.5" ry="12.5" style="stroke:#181818;stroke-width:0.5;" width="94" x="31.5" y="331.3643"/><text fill="#000000" font-family="sans-serif" font-size="12" lengthAdjust="spacing" textLength="74" x="41.5" y="352.9658">Parse Object</text><polygon fill="#F1F1F1" points="36,400.4971,121,400.4971,131,417.5635,121,434.6299,36,434.6299" style="stroke:#181818;stroke-width:0.5;"/><text fill="#000000" font-family="sans-serif" font-size="12" lengthAdjust="spacing" textLength="65" x="46" y="422.0986">Send Signal</text><polygon fill="#F1F1F1" points="48.5,282.8867,108.5,282.8867,120.5,294.8867,108.5,306.8867,48.5,306.8867,36.5,294.8867,48.5,282.8867" style="stroke:#181818;stroke-width:0.5;"/><text fill="#000000" font-family="sans-serif" font-size="11" lengthAdjust="spacing" textLength="18" x="82.5" y="317.5215">yes</text><text fill="#000000" font-family="sans-serif" font-size="11" lengthAdjust="spacing" textLength="60" x="48.5" y="299.0439">not &lt;EOF&gt;</text><text fill="#000000" font-family="sans-serif" font-size="11" lengthAdjust="spacing" textLength="14" x="120.5" y="292.5664">no</text><polygon fill="#F1F1F1" points="78.5,454.6299,90.5,466.6299,78.5,478.6299,66.5,466.6299,78.5,454.6299" style="stroke:#181818;stroke-width:0.5;"/><rect fill="#F1F1F1" height="34.1328" rx="12.5" ry="12.5" style="stroke:#181818;stroke-width:0.5;" width="74" x="41.5" y="498.6299"/><text fill="#000000" font-family="sans-serif" font-size="12" lengthAdjust="spacing" textLength="54" x="51.5" y="520.2314">Close File</text><polygon fill="#F1F1F1" points="25,552.7627,132,552.7627,142,569.8291,132,586.8955,25,586.8955" style="stroke:#181818;stroke-width:0.5;"/><text fill="#000000" font-family="sans-serif" font-size="12" lengthAdjust="spacing" textLength="87" x="35" y="574.3643">Send Complete</text><polygon fill="#F1F1F1" points="38.5,130.6211,118.5,130.6211,130.5,142.6211,118.5,154.6211,38.5,154.6211,26.5,142.6211,38.5,130.6211" style="stroke:#181818;stroke-width:0.5;"/><text fill="#000000" font-family="sans-serif" font-size="11" lengthAdjust="spacing" textLength="80" x="38.5" y="146.7783">task is running</text><line style="stroke:#181818;stroke-width:1.0;" x1="78.5" x2="78.5" y1="56.4883" y2="76.4883"/><polygon fill="#181818" points="74.5,66.4883,78.5,76.4883,82.5,66.4883,78.5,70.4883" style="stroke:#181818;stroke-width:1.0;"/><line style="stroke:#181818;stroke-width:1.0;" x1="78.5" x2="78.5" y1="208.7539" y2="228.7539"/><polygon fill="#181818" points="74.5,218.7539,78.5,228.7539,82.5,218.7539,78.5,222.7539" style="stroke:#181818;stroke-width:1.0;"/><line style="stroke:#181818;stroke-width:1.0;" x1="78.5" x2="78.5" y1="365.4971" y2="400.4971"/><polygon fill="#181818" points="74.5,390.4971,78.5,400.4971,82.5,390.4971,78.5,394.4971" style="stroke:#181818;stroke-width:1.0;"/><line style="stroke:#181818;stroke-width:1.0;" x1="78.5" x2="78.5" y1="306.8867" y2="331.3643"/><polygon fill="#181818" points="74.5,321.3643,78.5,331.3643,82.5,321.3643,78.5,325.3643" style="stroke:#181818;stroke-width:1.0;"/><line style="stroke:#181818;stroke-width:1.0;" x1="120.5" x2="141" y1="294.8867" y2="294.8867"/><polygon fill="#181818" points="137,372.9971,141,382.9971,145,372.9971,141,376.9971" style="stroke:#181818;stroke-width:1.0;"/><line style="stroke:#181818;stroke-width:1.0;" x1="141" x2="141" y1="294.8867" y2="466.6299"/><line style="stroke:#181818;stroke-width:1.0;" x1="141" x2="90.5" y1="466.6299" y2="466.6299"/><polygon fill="#181818" points="100.5,462.6299,90.5,466.6299,100.5,470.6299,96.5,466.6299" style="stroke:#181818;stroke-width:1.0;"/><line style="stroke:#181818;stroke-width:1.0;" x1="78.5" x2="78.5" y1="434.6299" y2="454.6299"/><polygon fill="#181818" points="74.5,444.6299,78.5,454.6299,82.5,444.6299,78.5,448.6299" style="stroke:#181818;stroke-width:1.0;"/><line style="stroke:#181818;stroke-width:1.0;" x1="78.5" x2="78.5" y1="262.8867" y2="282.8867"/><polygon fill="#181818" points="74.5,272.8867,78.5,282.8867,82.5,272.8867,78.5,276.8867" style="stroke:#181818;stroke-width:1.0;"/><line style="stroke:#181818;stroke-width:1.0;" x1="78.5" x2="78.5" y1="478.6299" y2="498.6299"/><polygon fill="#181818" points="74.5,488.6299,78.5,498.6299,82.5,488.6299,78.5,492.6299" style="stroke:#181818;stroke-width:1.0;"/><line style="stroke:#181818;stroke-width:1.0;" x1="78.5" x2="78.5" y1="532.7627" y2="552.7627"/><polygon fill="#181818" points="74.5,542.7627,78.5,552.7627,82.5,542.7627,78.5,546.7627" style="stroke:#181818;stroke-width:1.0;"/><line style="stroke:#181818;stroke-width:1.0;" x1="78.5" x2="78.5" y1="154.6211" y2="174.6211"/><polygon fill="#181818" points="74.5,164.6211,78.5,174.6211,82.5,164.6211,78.5,168.6211" style="stroke:#181818;stroke-width:1.0;"/><line style="stroke:#181818;stroke-width:1.0;" x1="78.5" x2="78.5" y1="586.8955" y2="596.8955"/><line style="stroke:#181818;stroke-width:1.0;" x1="78.5" x2="159" y1="596.8955" y2="596.8955"/><polygon fill="#181818" points="155,380.9971,159,370.9971,163,380.9971,159,376.9971" style="stroke:#181818;stroke-width:1.0;"/><line style="stroke:#181818;stroke-width:1.0;" x1="159" x2="159" y1="142.6211" y2="596.8955"/><line style="stroke:#181818;stroke-width:1.0;" x1="159" x2="130.5" y1="142.6211" y2="142.6211"/><polygon fill="#181818" points="140.5,138.6211,130.5,142.6211,140.5,146.6211,136.5,142.6211" style="stroke:#181818;stroke-width:1.0;"/><line style="stroke:#181818;stroke-width:1.0;" x1="78.5" x2="78.5" y1="110.6211" y2="130.6211"/><polygon fill="#181818" points="74.5,120.6211,78.5,130.6211,82.5,120.6211,78.5,124.6211" style="stroke:#181818;stroke-width:1.0;"/><!--MD5=[c678c28be9b92af1ffb57d407d6c0d69]
@startuml cfg_file_parser_general_operation

'***************************************************************************

skinparam monochrome true
skinparam linetype ortho

'***************************************************************************

mainframe activity: CFG-File-Parser - Runtime - General Operation

'***************************************************************************

start
:Initialize;
while (task is running)
    :Wait for signal<
    :Open File;
    if (not <EOF>) then (yes)
        :Parse Object;
        :Send Signal>
    else (no)
    endif
    :Close File;
    :Send Complete>
endwhile
  -[hidden]->
  detach

'***************************************************************************

@enduml

@startuml cfg_file_parser_general_operation


skinparam monochrome true
skinparam linetype ortho


mainframe activity: CFG-File-Parser - Runtime - General Operation


start
:Initialize;
while (task is running)
    :Wait for signal<
    :Open File;
    if (not <EOF>) then (yes)
        :Parse Object;
        :Send Signal>
    else (no)
    endif
    :Close File;
    :Send Complete>
endwhile
  -[hidden]->
  detach


@enduml

PlantUML version 1.2022.7(Mon Aug 22 19:01:30 CEST 2022)
(GPL source distribution)
Java Runtime: OpenJDK Runtime Environment
JVM: OpenJDK 64-Bit Server VM
Default Encoding: UTF-8
Language: de
Country: DE
--></g></svg>