<?xml version="1.0" encoding="UTF-8" standalone="no"?><svg xmlns="http://www.w3.org/2000/svg" xmlns:xlink="http://www.w3.org/1999/xlink" contentStyleType="text/css" height="327px" preserveAspectRatio="none" style="width:500px;height:327px;background:#FFFFFF;" version="1.1" viewBox="0 0 500 327" width="500px" zoomAndPan="magnify"><defs/><g><!--MD5=[a50709bd918e361c129b2a3dcc42fcc0]
cluster class: RPi-Control - Movement-Detection - Context--><g id="cluster_class: RPi-Control - Movement-Detection - Context"><rect fill="none" height="314" rx="2.5" ry="2.5" style="stroke:#181818;stroke-width:1.0;" width="487" x="7" y="7"/><path d="M395,7 L395,16.4883 L385,26.4883 L7,26.4883 " fill="none" style="stroke:#181818;stroke-width:1.0;"/><text fill="#000000" font-family="sans-serif" font-size="14" font-weight="bold" lengthAdjust="spacing" textLength="378" x="10" y="21.5352">class: RPi-Control - Movement-Detection - Context</text></g><!--MD5=[f04600f0575a07dfe97362a654bdaa04]
cluster kernel--><g id="cluster_kernel"><path d="M230.5,50 L276.5,50 A3.75,3.75 0 0 1 279,52.5 L286,72.4883 L462.5,72.4883 A2.5,2.5 0 0 1 465,74.9883 L465,146.5 A2.5,2.5 0 0 1 462.5,149 L230.5,149 A2.5,2.5 0 0 1 228,146.5 L228,52.5 A2.5,2.5 0 0 1 230.5,50 " fill="none" style="stroke:#000000;stroke-width:1.5;"/><line style="stroke:#000000;stroke-width:1.5;" x1="228" x2="286" y1="72.4883" y2="72.4883"/><text fill="#000000" font-family="sans-serif" font-size="14" font-weight="bold" lengthAdjust="spacing" textLength="45" x="232" y="65.5352">kernel</text></g><!--MD5=[ad1ccc8de92f1bc58f780b3d3b678fdb]
cluster driver--><g id="cluster_driver"><path d="M43.5,50 L86.5,50 A3.75,3.75 0 0 1 89,52.5 L96,72.4883 L196.5,72.4883 A2.5,2.5 0 0 1 199,74.9883 L199,146.5 A2.5,2.5 0 0 1 196.5,149 L43.5,149 A2.5,2.5 0 0 1 41,146.5 L41,52.5 A2.5,2.5 0 0 1 43.5,50 " fill="none" style="stroke:#000000;stroke-width:1.5;"/><line style="stroke:#000000;stroke-width:1.5;" x1="41" x2="96" y1="72.4883" y2="72.4883"/><text fill="#000000" font-family="sans-serif" font-size="14" font-weight="bold" lengthAdjust="spacing" textLength="42" x="45" y="65.5352">driver</text></g><!--MD5=[7552260fd2021a323855cf929da74f79]
cluster modules--><g id="cluster_modules"><path d="M33.5,198 L96.5,198 A3.75,3.75 0 0 1 99,200.5 L106,220.4883 L467.5,220.4883 A2.5,2.5 0 0 1 470,222.9883 L470,294.5 A2.5,2.5 0 0 1 467.5,297 L33.5,297 A2.5,2.5 0 0 1 31,294.5 L31,200.5 A2.5,2.5 0 0 1 33.5,198 " fill="none" style="stroke:#000000;stroke-width:1.5;"/><line style="stroke:#000000;stroke-width:1.5;" x1="31" x2="106" y1="220.4883" y2="220.4883"/><text fill="#000000" font-family="sans-serif" font-size="14" font-weight="bold" lengthAdjust="spacing" textLength="62" x="35" y="213.5352">modules</text></g><!--MD5=[b34797a66dc35cbf1d65f7e3ca75530e]
class Task--><g id="elem_Task"><rect codeLine="15" fill="#F1F1F1" height="48" id="Task" rx="2.5" ry="2.5" style="stroke:#181818;stroke-width:0.5;" width="64" x="385" y="85"/><ellipse cx="400" cy="101" fill="#B1B1B1" rx="11" ry="11" style="stroke:#181818;stroke-width:1.0;"/><path d="M396.4277,97.2651 L396.4277,95.1069 L403.8071,95.1069 L403.8071,97.2651 L401.3418,97.2651 L401.3418,105.3418 L403.8071,105.3418 L403.8071,107.5 L396.4277,107.5 L396.4277,105.3418 L398.8931,105.3418 L398.8931,97.2651 Z " fill="#000000"/><text fill="#000000" font-family="sans-serif" font-size="14" font-style="italic" lengthAdjust="spacing" textLength="32" x="414" y="106.291">Task</text><line style="stroke:#181818;stroke-width:0.5;" x1="386" x2="448" y1="117" y2="117"/><line style="stroke:#181818;stroke-width:0.5;" x1="386" x2="448" y1="125" y2="125"/></g><!--MD5=[83680f3e354d0153d2750632bbabba7c]
class singal_slot--><g id="elem_singal_slot"><rect codeLine="19" fill="#F1F1F1" height="48" id="singal_slot" rx="2.5" ry="2.5" style="stroke:#181818;stroke-width:0.5;" width="105" x="244.5" y="85"/><ellipse cx="259.5" cy="101" fill="#B1B1B1" rx="11" ry="11" style="stroke:#181818;stroke-width:1.0;"/><path d="M255.9277,97.2651 L255.9277,95.1069 L263.3071,95.1069 L263.3071,97.2651 L260.8418,97.2651 L260.8418,105.3418 L263.3071,105.3418 L263.3071,107.5 L255.9277,107.5 L255.9277,105.3418 L258.3931,105.3418 L258.3931,97.2651 Z " fill="#000000"/><text fill="#000000" font-family="sans-serif" font-size="14" font-style="italic" lengthAdjust="spacing" textLength="73" x="273.5" y="106.291">singal_slot</text><line style="stroke:#181818;stroke-width:0.5;" x1="245.5" x2="348.5" y1="117" y2="117"/><line style="stroke:#181818;stroke-width:0.5;" x1="245.5" x2="348.5" y1="125" y2="125"/></g><!--MD5=[58c337016e6c6e3895e113267a6fb63e]
class sensor_driver--><g id="elem_sensor_driver"><rect codeLine="25" fill="#F1F1F1" height="48" id="sensor_driver" rx="2.5" ry="2.5" style="stroke:#181818;stroke-width:0.5;" width="125" x="57.5" y="85"/><ellipse cx="72.5" cy="101" fill="#C2C2C2" rx="11" ry="11" style="stroke:#181818;stroke-width:1.0;"/><path d="M74.9731,107.1431 Q74.3921,107.4419 73.7529,107.5913 Q73.1138,107.7407 72.4082,107.7407 Q69.9014,107.7407 68.5815,106.0889 Q67.2617,104.437 67.2617,101.3159 Q67.2617,98.1865 68.5815,96.5347 Q69.9014,94.8828 72.4082,94.8828 Q73.1138,94.8828 73.7612,95.0322 Q74.4087,95.1816 74.9731,95.4805 L74.9731,98.2031 Q74.3423,97.6221 73.7488,97.3523 Q73.1553,97.0825 72.5244,97.0825 Q71.1797,97.0825 70.4949,98.1492 Q69.8101,99.2158 69.8101,101.3159 Q69.8101,103.4077 70.4949,104.4744 Q71.1797,105.541 72.5244,105.541 Q73.1553,105.541 73.7488,105.2712 Q74.3423,105.0015 74.9731,104.4204 Z " fill="#000000"/><text fill="#000000" font-family="sans-serif" font-size="14" lengthAdjust="spacing" textLength="93" x="86.5" y="106.291">sensor_driver</text><line style="stroke:#181818;stroke-width:0.5;" x1="58.5" x2="181.5" y1="117" y2="117"/><line style="stroke:#181818;stroke-width:0.5;" x1="58.5" x2="181.5" y1="125" y2="125"/></g><!--MD5=[ca7b4671b4f99434317a27c41500de8e]
class sensor_interface--><g id="elem_sensor_interface"><rect codeLine="31" fill="#F1F1F1" height="48" id="sensor_interface" rx="2.5" ry="2.5" style="stroke:#181818;stroke-width:0.5;" width="145" x="47.5" y="233"/><ellipse cx="62.5" cy="249" fill="#B1B1B1" rx="11" ry="11" style="stroke:#181818;stroke-width:1.0;"/><path d="M58.9277,245.2651 L58.9277,243.1069 L66.3071,243.1069 L66.3071,245.2651 L63.8418,245.2651 L63.8418,253.3418 L66.3071,253.3418 L66.3071,255.5 L58.9277,255.5 L58.9277,253.3418 L61.3931,253.3418 L61.3931,245.2651 Z " fill="#000000"/><text fill="#000000" font-family="sans-serif" font-size="14" font-style="italic" lengthAdjust="spacing" textLength="113" x="76.5" y="254.291">sensor_interface</text><line style="stroke:#181818;stroke-width:0.5;" x1="48.5" x2="191.5" y1="265" y2="265"/><line style="stroke:#181818;stroke-width:0.5;" x1="48.5" x2="191.5" y1="273" y2="273"/></g><!--MD5=[6c4dcdab31df6c994507bcfcd5130d99]
class movement_detection--><g id="elem_movement_detection"><rect codeLine="35" fill="#F1F1F1" height="48" id="movement_detection" rx="2.5" ry="2.5" style="stroke:#181818;stroke-width:0.5;" width="175" x="278.5" y="233"/><ellipse cx="293.5" cy="249" fill="#C2C2C2" rx="11" ry="11" style="stroke:#181818;stroke-width:1.0;"/><path d="M295.9731,255.1431 Q295.3921,255.4419 294.7529,255.5913 Q294.1138,255.7407 293.4082,255.7407 Q290.9014,255.7407 289.5815,254.0889 Q288.2617,252.437 288.2617,249.3159 Q288.2617,246.1865 289.5815,244.5347 Q290.9014,242.8828 293.4082,242.8828 Q294.1138,242.8828 294.7612,243.0322 Q295.4087,243.1816 295.9731,243.4805 L295.9731,246.2031 Q295.3423,245.6221 294.7488,245.3523 Q294.1553,245.0825 293.5244,245.0825 Q292.1797,245.0825 291.4949,246.1492 Q290.8101,247.2158 290.8101,249.3159 Q290.8101,251.4077 291.4949,252.4744 Q292.1797,253.541 293.5244,253.541 Q294.1553,253.541 294.7488,253.2712 Q295.3423,253.0015 295.9731,252.4204 Z " fill="#000000"/><text fill="#000000" font-family="sans-serif" font-size="14" lengthAdjust="spacing" textLength="143" x="307.5" y="254.291">movement_detection</text><line style="stroke:#181818;stroke-width:0.5;" x1="279.5" x2="452.5" y1="265" y2="265"/><line style="stroke:#181818;stroke-width:0.5;" x1="279.5" x2="452.5" y1="273" y2="273"/></g><!--MD5=[6bbe54a5b2d2e3da57336c85f3e3068f]
reverse link Task to movement_detection--><g id="link_Task_movement_detection"><path codeLine="40" d="M401.81,153.47 C392.75,179.41 381.6,211.33 374.17,232.6 " fill="none" id="Task-backto-movement_detection" style="stroke:#181818;stroke-width:1.0;stroke-dasharray:7.0,7.0;"/><polygon fill="none" points="395.1,151.46,408.31,134.89,408.32,156.08,395.1,151.46" style="stroke:#181818;stroke-width:1.0;"/></g><!--MD5=[3bf3453ac8e32186a79e776a28d27385]
reverse link singal_slot to movement_detection--><g id="link_singal_slot_movement_detection"><path codeLine="41" d="M310.76,139.11 C323.73,166.56 342.93,207.19 354.94,232.6 " fill="none" id="singal_slot-backto-movement_detection" style="stroke:#181818;stroke-width:1.0;stroke-dasharray:7.0,7.0;"/><polygon fill="#181818" points="308.73,134.83,308.9504,144.6764,310.8624,139.3525,316.1864,141.2645,308.73,134.83" style="stroke:#181818;stroke-width:1.0;"/><text fill="#000000" font-family="sans-serif" font-size="13" lengthAdjust="spacing" textLength="49" x="330" y="178.5684">&lt;uses&gt;</text></g><!--MD5=[c7917c6ba2763f899d69e65684d7affd]
link movement_detection to sensor_interface--><g id="link_movement_detection_sensor_interface"><path codeLine="42" d="M278.16,257 C252.38,257 224.35,257 199.15,257 " fill="none" id="movement_detection-to-sensor_interface" style="stroke:#181818;stroke-width:1.0;stroke-dasharray:7.0,7.0;"/><polygon fill="#181818" points="194.32,257,203.32,261,199.32,257,203.32,253,194.32,257" style="stroke:#181818;stroke-width:1.0;"/><text fill="#000000" font-family="sans-serif" font-size="13" lengthAdjust="spacing" textLength="49" x="211" y="250.5684">&lt;uses&gt;</text></g><!--MD5=[66383e49d5cdb819d89f72b36a90d6cd]
link sensor_driver to sensor_interface--><g id="link_sensor_driver_sensor_interface"><path codeLine="44" d="M120,133.46 C120,154.42 120,185.71 120,211.43 " fill="none" id="sensor_driver-to-sensor_interface" style="stroke:#181818;stroke-width:1.0;"/><polygon fill="none" points="127,211.09,120,231.09,113,211.09,127,211.09" style="stroke:#181818;stroke-width:1.0;"/></g><!--MD5=[9110cf9117fe2988f138b1e75037612a]
@startuml movement_detection_context

'***************************************************************************

skinparam monochrome true
' skinparam linetype ortho

'***************************************************************************

frame "class: RPi-Control - Movement-Detection - Context" {

'***************************************************************************

    folder "kernel" {

        interface Task {

        }

        interface singal_slot {

        }
    }

    folder "driver" {
        class sensor_driver {

        }
    }

    folder "modules" {
        interface sensor_interface {

        }

        class movement_detection  {

        }
    }

    movement_detection .up.|> Task
    movement_detection .up.> singal_slot : <uses>
    movement_detection .right.> sensor_interface : <uses>

    sensor_driver -down-|> sensor_interface

'***************************************************************************

}

'***************************************************************************

@enduml

@startuml movement_detection_context


skinparam monochrome true


frame "class: RPi-Control - Movement-Detection - Context" {


    folder "kernel" {

        interface Task {

        }

        interface singal_slot {

        }
    }

    folder "driver" {
        class sensor_driver {

        }
    }

    folder "modules" {
        interface sensor_interface {

        }

        class movement_detection  {

        }
    }

    movement_detection .up.|> Task
    movement_detection .up.> singal_slot : <uses>
    movement_detection .right.> sensor_interface : <uses>

    sensor_driver -down-|> sensor_interface


}


@enduml

PlantUML version 1.2022.7(Mon Aug 22 19:01:30 CEST 2022)
(GPL source distribution)
Java Runtime: OpenJDK Runtime Environment
JVM: OpenJDK 64-Bit Server VM
Default Encoding: UTF-8
Language: de
Country: DE
--></g></svg>