<?xml version="1.0" encoding="UTF-8" standalone="no"?><svg xmlns="http://www.w3.org/2000/svg" xmlns:xlink="http://www.w3.org/1999/xlink" contentStyleType="text/css" height="468px" preserveAspectRatio="none" style="width:668px;height:468px;background:#FFFFFF;" version="1.1" viewBox="0 0 668 468" width="668px" zoomAndPan="magnify"><defs/><g><!--MD5=[a50709bd918e361c129b2a3dcc42fcc0]
cluster class: RPi-Control - Movement-Detection - Context--><g id="cluster_class: RPi-Control - Movement-Detection - Context"><rect fill="none" height="455" rx="2.5" ry="2.5" style="stroke:#181818;stroke-width:1.0;" width="655" x="7" y="7"/><path d="M395,7 L395,16.4883 L385,26.4883 L7,26.4883 " fill="none" style="stroke:#181818;stroke-width:1.0;"/><text fill="#000000" font-family="sans-serif" font-size="14" font-weight="bold" lengthAdjust="spacing" textLength="378" x="10" y="21.5352">class: RPi-Control - Movement-Detection - Context</text></g><!--MD5=[f04600f0575a07dfe97362a654bdaa04]
cluster kernel--><g id="cluster_kernel"><path d="M33.5,213 L79.5,213 A3.75,3.75 0 0 1 82,215.5 L89,235.4883 L395.5,235.4883 A2.5,2.5 0 0 1 398,237.9883 L398,309.5 A2.5,2.5 0 0 1 395.5,312 L33.5,312 A2.5,2.5 0 0 1 31,309.5 L31,215.5 A2.5,2.5 0 0 1 33.5,213 " fill="none" style="stroke:#000000;stroke-width:1.5;"/><line style="stroke:#000000;stroke-width:1.5;" x1="31" x2="89" y1="235.4883" y2="235.4883"/><text fill="#000000" font-family="sans-serif" font-size="14" font-weight="bold" lengthAdjust="spacing" textLength="45" x="35" y="228.5352">kernel</text></g><!--MD5=[8dbeeff22990824a4da5b8f9ab664954]
cluster driver/movement_detection--><g id="cluster_driver/movement_detection"><path d="M424.5,213 L625.5,213 A3.75,3.75 0 0 1 628,215.5 L635,235.4883 L635.5,235.4883 A2.5,2.5 0 0 1 638,237.9883 L638,435.5 A2.5,2.5 0 0 1 635.5,438 L424.5,438 A2.5,2.5 0 0 1 422,435.5 L422,215.5 A2.5,2.5 0 0 1 424.5,213 " fill="none" style="stroke:#000000;stroke-width:1.5;"/><line style="stroke:#000000;stroke-width:1.5;" x1="422" x2="635" y1="235.4883" y2="235.4883"/><text fill="#000000" font-family="sans-serif" font-size="14" font-weight="bold" lengthAdjust="spacing" textLength="200" x="426" y="228.5352">driver/movement_detection</text></g><!--MD5=[114d050326939d47b7887198c1de68ee]
cluster modules/movement_detection--><g id="cluster_modules/movement_detection"><path d="M155.5,50 L376.5,50 A3.75,3.75 0 0 1 379,52.5 L386,72.4883 L436.5,72.4883 A2.5,2.5 0 0 1 439,74.9883 L439,161.5 A2.5,2.5 0 0 1 436.5,164 L155.5,164 A2.5,2.5 0 0 1 153,161.5 L153,52.5 A2.5,2.5 0 0 1 155.5,50 " fill="none" style="stroke:#000000;stroke-width:1.5;"/><line style="stroke:#000000;stroke-width:1.5;" x1="153" x2="386" y1="72.4883" y2="72.4883"/><text fill="#000000" font-family="sans-serif" font-size="14" font-weight="bold" lengthAdjust="spacing" textLength="220" x="157" y="65.5352">modules/movement_detection</text></g><!--MD5=[dd9a97e507cc1d516dfc0b3e9e9c1789]
class task_interface--><g id="elem_task_interface"><rect codeLine="15" fill="#F1F1F1" height="48" id="task_interface" rx="2.5" ry="2.5" style="stroke:#181818;stroke-width:0.5;" width="127" x="47.5" y="248"/><ellipse cx="62.5" cy="264" fill="#B1B1B1" rx="11" ry="11" style="stroke:#181818;stroke-width:1.0;"/><path d="M58.9277,260.2651 L58.9277,258.1069 L66.3071,258.1069 L66.3071,260.2651 L63.8418,260.2651 L63.8418,268.3418 L66.3071,268.3418 L66.3071,270.5 L58.9277,270.5 L58.9277,268.3418 L61.3931,268.3418 L61.3931,260.2651 Z " fill="#000000"/><text fill="#000000" font-family="sans-serif" font-size="14" font-style="italic" lengthAdjust="spacing" textLength="95" x="76.5" y="269.291">task_interface</text><line style="stroke:#181818;stroke-width:0.5;" x1="48.5" x2="173.5" y1="280" y2="280"/><line style="stroke:#181818;stroke-width:0.5;" x1="48.5" x2="173.5" y1="288" y2="288"/></g><!--MD5=[0a36e66a645a439e9db5de35c7103aeb]
class signal_slot_interface--><g id="elem_signal_slot_interface"><rect codeLine="19" fill="#F1F1F1" height="48" id="signal_slot_interface" rx="2.5" ry="2.5" style="stroke:#181818;stroke-width:0.5;" width="172" x="210" y="248"/><ellipse cx="225" cy="264" fill="#B1B1B1" rx="11" ry="11" style="stroke:#181818;stroke-width:1.0;"/><path d="M221.4277,260.2651 L221.4277,258.1069 L228.8071,258.1069 L228.8071,260.2651 L226.3418,260.2651 L226.3418,268.3418 L228.8071,268.3418 L228.8071,270.5 L221.4277,270.5 L221.4277,268.3418 L223.8931,268.3418 L223.8931,260.2651 Z " fill="#000000"/><text fill="#000000" font-family="sans-serif" font-size="14" font-style="italic" lengthAdjust="spacing" textLength="140" x="239" y="269.291">signal_slot_interface</text><line style="stroke:#181818;stroke-width:0.5;" x1="211" x2="381" y1="280" y2="280"/><line style="stroke:#181818;stroke-width:0.5;" x1="211" x2="381" y1="288" y2="288"/></g><!--MD5=[d7f3e9bb3dfbc0454478dca41479fd38]
entity sensor_driver--><g id="elem_sensor_driver"><rect fill="#DDDDDD" height="62.9766" rx="2.5" ry="2.5" style="stroke:#181818;stroke-width:0.5;" width="132" x="445" y="359"/><rect fill="#DDDDDD" height="10" style="stroke:#181818;stroke-width:0.5;" width="15" x="557" y="364"/><rect fill="#DDDDDD" height="2" style="stroke:#181818;stroke-width:0.5;" width="4" x="555" y="366"/><rect fill="#DDDDDD" height="2" style="stroke:#181818;stroke-width:0.5;" width="4" x="555" y="370"/><text fill="#000000" font-family="sans-serif" font-size="14" lengthAdjust="spacing" textLength="92" x="460" y="392.5352">«component»</text><text fill="#000000" font-family="sans-serif" font-size="14" lengthAdjust="spacing" textLength="92" x="460" y="409.0234">Sensor Driver</text></g><!--MD5=[ca7b4671b4f99434317a27c41500de8e]
class sensor_interface--><g id="elem_sensor_interface"><rect codeLine="31" fill="#F1F1F1" height="48" id="sensor_interface" rx="2.5" ry="2.5" style="stroke:#181818;stroke-width:0.5;" width="145" x="438.5" y="248"/><ellipse cx="453.5" cy="264" fill="#B1B1B1" rx="11" ry="11" style="stroke:#181818;stroke-width:1.0;"/><path d="M449.9277,260.2651 L449.9277,258.1069 L457.3071,258.1069 L457.3071,260.2651 L454.8418,260.2651 L454.8418,268.3418 L457.3071,268.3418 L457.3071,270.5 L449.9277,270.5 L449.9277,268.3418 L452.3931,268.3418 L452.3931,260.2651 Z " fill="#000000"/><text fill="#000000" font-family="sans-serif" font-size="14" font-style="italic" lengthAdjust="spacing" textLength="113" x="467.5" y="269.291">sensor_interface</text><line style="stroke:#181818;stroke-width:0.5;" x1="439.5" x2="582.5" y1="280" y2="280"/><line style="stroke:#181818;stroke-width:0.5;" x1="439.5" x2="582.5" y1="288" y2="288"/></g><!--MD5=[7018cc93bfae183b85b6aa06ba5c1ad1]
entity movement_detection--><g id="elem_movement_detection"><rect fill="#DDDDDD" height="62.9766" rx="2.5" ry="2.5" style="stroke:#181818;stroke-width:0.5;" width="254" x="169" y="85"/><rect fill="#DDDDDD" height="10" style="stroke:#181818;stroke-width:0.5;" width="15" x="403" y="90"/><rect fill="#DDDDDD" height="2" style="stroke:#181818;stroke-width:0.5;" width="4" x="401" y="92"/><rect fill="#DDDDDD" height="2" style="stroke:#181818;stroke-width:0.5;" width="4" x="401" y="96"/><text fill="#000000" font-family="sans-serif" font-size="14" lengthAdjust="spacing" textLength="92" x="184" y="118.5352">«component»</text><text fill="#000000" font-family="sans-serif" font-size="14" lengthAdjust="spacing" textLength="214" x="184" y="135.0234">Movement Detection Controller</text></g><!--MD5=[06bca21c2e512219014117c5f317e5a9]
link movement_detection to task_interface--><g id="link_movement_detection_task_interface"><path codeLine="44" d="M259.01,148.19 C229.2,172.92 187.2,207.78 155.55,234.04 " fill="none" id="movement_detection-to-task_interface" style="stroke:#181818;stroke-width:1.0;stroke-dasharray:7.0,7.0;"/><polygon fill="none" points="160.2,239.28,140.34,246.66,151.26,228.5,160.2,239.28" style="stroke:#181818;stroke-width:1.0;"/></g><!--MD5=[40a097edef2c76140abd5c496842ae02]
link movement_detection to signal_slot_interface--><g id="link_movement_detection_signal_slot_interface"><path codeLine="45" d="M296,148.19 C296,175.41 296,214.88 296,241.68 " fill="none" id="movement_detection-to-signal_slot_interface" style="stroke:#181818;stroke-width:1.0;stroke-dasharray:7.0,7.0;"/><polygon fill="#181818" points="296,246.35,300,237.35,296,241.35,292,237.35,296,246.35" style="stroke:#181818;stroke-width:1.0;"/><text fill="#000000" font-family="sans-serif" font-size="13" lengthAdjust="spacing" textLength="49" x="297" y="193.5684">&lt;uses&gt;</text></g><!--MD5=[c7917c6ba2763f899d69e65684d7affd]
link movement_detection to sensor_interface--><g id="link_movement_detection_sensor_interface"><path codeLine="46" d="M339.25,148.38 C378.56,176.45 435.99,217.44 473.42,244.17 " fill="none" id="movement_detection-to-sensor_interface" style="stroke:#181818;stroke-width:1.0;stroke-dasharray:7.0,7.0;"/><polygon fill="#181818" points="477.11,246.8,472.1198,238.309,473.0442,243.8898,467.4634,244.8142,477.11,246.8" style="stroke:#181818;stroke-width:1.0;"/><text fill="#000000" font-family="sans-serif" font-size="13" lengthAdjust="spacing" textLength="49" x="404" y="193.5684">&lt;uses&gt;</text></g><!--MD5=[f34b0faae153ca0f31ef944764d77a5b]
reverse link sensor_interface to sensor_driver--><g id="link_sensor_interface_sensor_driver"><path codeLine="48" d="M511,317.77 C511,331.46 511,346.2 511,358.73 " fill="none" id="sensor_interface-backto-sensor_driver" style="stroke:#181818;stroke-width:1.0;stroke-dasharray:7.0,7.0;"/><polygon fill="none" points="504,317.81,511,297.81,518,317.81,504,317.81" style="stroke:#181818;stroke-width:1.0;"/></g><!--MD5=[2f198ad95c609a1402d0bd86f3dbec19]
@startuml movement_detection_context

'***************************************************************************

skinparam monochrome true
' skinparam linetype ortho

'***************************************************************************

frame "class: RPi-Control - Movement-Detection - Context" {

'***************************************************************************

    folder "kernel" {

        interface task_interface {

        }

        interface signal_slot_interface {

        }
    }

    folder "driver/movement_detection" {

        component sensor_driver #DDDDDD [
            <<component>>
            Sensor Driver
        ]

        interface sensor_interface {

        }
    }

    folder "modules/movement_detection" {

        component movement_detection #DDDDDD [
            <<component>>
            Movement Detection Controller
        ]
    }

    movement_detection .down.|> task_interface
    movement_detection .down.> signal_slot_interface : <uses>
    movement_detection .down.> sensor_interface : <uses>

    sensor_driver .up.|> sensor_interface

'***************************************************************************

}

'***************************************************************************

@enduml

@startuml movement_detection_context


skinparam monochrome true


frame "class: RPi-Control - Movement-Detection - Context" {


    folder "kernel" {

        interface task_interface {

        }

        interface signal_slot_interface {

        }
    }

    folder "driver/movement_detection" {

        component sensor_driver #DDDDDD [
            <<component>>
            Sensor Driver
        ]

        interface sensor_interface {

        }
    }

    folder "modules/movement_detection" {

        component movement_detection #DDDDDD [
            <<component>>
            Movement Detection Controller
        ]
    }

    movement_detection .down.|> task_interface
    movement_detection .down.> signal_slot_interface : <uses>
    movement_detection .down.> sensor_interface : <uses>

    sensor_driver .up.|> sensor_interface


}


@enduml

PlantUML version 1.2022.7(Mon Aug 22 19:01:30 CEST 2022)
(GPL source distribution)
Java Runtime: OpenJDK Runtime Environment
JVM: OpenJDK 64-Bit Server VM
Default Encoding: UTF-8
Language: de
Country: DE
--></g></svg>