<?xml version="1.0" encoding="UTF-8" standalone="no"?><svg xmlns="http://www.w3.org/2000/svg" xmlns:xlink="http://www.w3.org/1999/xlink" contentStyleType="text/css" height="328px" preserveAspectRatio="none" style="width:754px;height:328px;background:#FFFFFF;" version="1.1" viewBox="0 0 754 328" width="754px" zoomAndPan="magnify"><defs/><g><!--MD5=[237d54926629404d6d215b84f80fece9]
cluster component: Task-Control - Structure - Overview--><g id="cluster_component: Task-Control - Structure - Overview"><rect fill="none" height="315" rx="2.5" ry="2.5" style="stroke:#181818;stroke-width:1.0;" width="741" x="7" y="7"/><path d="M373,7 L373,16.4883 L363,26.4883 L7,26.4883 " fill="none" style="stroke:#181818;stroke-width:1.0;"/><text fill="#000000" font-family="sans-serif" font-size="14" font-weight="bold" lengthAdjust="spacing" textLength="356" x="10" y="21.5352">component: Task-Control - Structure - Overview</text></g><!--MD5=[01435ace8273dc3cae88e7f376e4d373]
cluster core--><g id="cluster_core"><path d="M223.5,50 L254.5,50 A3.75,3.75 0 0 1 257,52.5 L264,72.4883 L721.5,72.4883 A2.5,2.5 0 0 1 724,74.9883 L724,295.5 A2.5,2.5 0 0 1 721.5,298 L223.5,298 A2.5,2.5 0 0 1 221,295.5 L221,52.5 A2.5,2.5 0 0 1 223.5,50 " fill="none" style="stroke:#000000;stroke-width:1.5;"/><line style="stroke:#000000;stroke-width:1.5;" x1="221" x2="264" y1="72.4883" y2="72.4883"/><text fill="#000000" font-family="sans-serif" font-size="14" font-weight="bold" lengthAdjust="spacing" textLength="30" x="225" y="65.5352">core</text></g><!--MD5=[996a0e22aa5fcad0a8b55c37b2fd323d]
cluster Task--><g id="cluster_Task"><path d="M247.5,93 L283.5,93 A3.75,3.75 0 0 1 286,95.5 L293,115.4883 L697.5,115.4883 A2.5,2.5 0 0 1 700,117.9883 L700,271.5 A2.5,2.5 0 0 1 697.5,274 L247.5,274 A2.5,2.5 0 0 1 245,271.5 L245,95.5 A2.5,2.5 0 0 1 247.5,93 " fill="none" style="stroke:#000000;stroke-width:1.5;"/><line style="stroke:#000000;stroke-width:1.5;" x1="245" x2="293" y1="115.4883" y2="115.4883"/><text fill="#000000" font-family="sans-serif" font-size="14" font-weight="bold" lengthAdjust="spacing" textLength="35" x="249" y="108.5352">Task</text></g><!--MD5=[d206427c546dc36734a47cda1704266e]
cluster extern--><g id="cluster_extern"><path d="M33.5,114 L79.5,114 A3.75,3.75 0 0 1 82,116.5 L89,136.4883 L194.5,136.4883 A2.5,2.5 0 0 1 197,138.9883 L197,250.5 A2.5,2.5 0 0 1 194.5,253 L33.5,253 A2.5,2.5 0 0 1 31,250.5 L31,116.5 A2.5,2.5 0 0 1 33.5,114 " fill="none" style="stroke:#000000;stroke-width:1.5;"/><line style="stroke:#000000;stroke-width:1.5;" x1="31" x2="89" y1="136.4883" y2="136.4883"/><text fill="#000000" font-family="sans-serif" font-size="14" font-weight="bold" lengthAdjust="spacing" textLength="45" x="35" y="129.5352">extern</text></g><!--MD5=[2dc7e3ed462a919911280a2a033ea793]
class TaskInterface--><g id="elem_TaskInterface"><rect codeLine="16" fill="#F1F1F1" height="130.4414" id="TaskInterface" rx="2.5" ry="2.5" style="stroke:#181818;stroke-width:0.5;" width="170" x="261" y="128"/><ellipse cx="296.7" cy="144" fill="#B1B1B1" rx="11" ry="11" style="stroke:#181818;stroke-width:1.0;"/><path d="M293.1277,140.2651 L293.1277,138.1069 L300.5071,138.1069 L300.5071,140.2651 L298.0418,140.2651 L298.0418,148.3418 L300.5071,148.3418 L300.5071,150.5 L293.1277,150.5 L293.1277,148.3418 L295.5931,148.3418 L295.5931,140.2651 Z " fill="#000000"/><text fill="#000000" font-family="sans-serif" font-size="14" font-style="italic" lengthAdjust="spacing" textLength="92" x="315.3" y="149.291">TaskInterface</text><line style="stroke:#181818;stroke-width:0.5;" x1="262" x2="430" y1="160" y2="160"/><line style="stroke:#181818;stroke-width:0.5;" x1="262" x2="430" y1="168" y2="168"/><text fill="#000000" font-family="sans-serif" font-size="14" lengthAdjust="spacing" textLength="41" x="267" y="185.5352">start()</text><text fill="#000000" font-family="sans-serif" font-size="14" lengthAdjust="spacing" textLength="64" x="267" y="202.0234">execute()</text><text fill="#000000" font-family="sans-serif" font-size="14" lengthAdjust="spacing" textLength="72" x="267" y="218.5117">get_state()</text><text fill="#000000" font-family="sans-serif" font-size="14" lengthAdjust="spacing" textLength="76" x="267" y="235">terminate()</text><text fill="#000000" font-family="sans-serif" font-size="14" lengthAdjust="spacing" textLength="158" x="267" y="251.4883">get_schedule_interval()</text></g><!--MD5=[8ea4fa12d69808f85c15a3ca3374e3cc]
class TaskController--><g id="elem_TaskController"><rect codeLine="24" fill="#F1F1F1" height="97.4648" id="TaskController" rx="2.5" ry="2.5" style="stroke:#181818;stroke-width:0.5;" width="167" x="516.5" y="144.5"/><ellipse cx="546.35" cy="160.5" fill="#C2C2C2" rx="11" ry="11" style="stroke:#181818;stroke-width:1.0;"/><path d="M548.8231,166.6431 Q548.2421,166.9419 547.6029,167.0913 Q546.9638,167.2407 546.2582,167.2407 Q543.7514,167.2407 542.4315,165.5889 Q541.1117,163.937 541.1117,160.8159 Q541.1117,157.6865 542.4315,156.0347 Q543.7514,154.3828 546.2582,154.3828 Q546.9638,154.3828 547.6112,154.5322 Q548.2587,154.6816 548.8231,154.9805 L548.8231,157.7031 Q548.1923,157.1221 547.5988,156.8523 Q547.0053,156.5825 546.3744,156.5825 Q545.0297,156.5825 544.3449,157.6492 Q543.6601,158.7158 543.6601,160.8159 Q543.6601,162.9077 544.3449,163.9744 Q545.0297,165.041 546.3744,165.041 Q547.0053,165.041 547.5988,164.7712 Q548.1923,164.5015 548.8231,163.9204 Z " fill="#000000"/><text fill="#000000" font-family="sans-serif" font-size="14" lengthAdjust="spacing" textLength="102" x="563.65" y="165.791">TaskController</text><line style="stroke:#181818;stroke-width:0.5;" x1="517.5" x2="682.5" y1="176.5" y2="176.5"/><text fill="#000000" font-family="sans-serif" font-size="14" lengthAdjust="spacing" textLength="147" x="522.5" y="194.0352">TaskInterface taskList</text><line style="stroke:#181818;stroke-width:0.5;" x1="517.5" x2="682.5" y1="200.9883" y2="200.9883"/><text fill="#000000" font-family="sans-serif" font-size="14" lengthAdjust="spacing" textLength="155" x="522.5" y="218.5234">register(TaskInterface)</text><text fill="#000000" font-family="sans-serif" font-size="14" lengthAdjust="spacing" textLength="71" x="522.5" y="235.0117">schedule()</text></g><!--MD5=[b34797a66dc35cbf1d65f7e3ca75530e]
class Task--><g id="elem_Task"><rect codeLine="35" fill="#F1F1F1" height="48" id="Task" rx="2.5" ry="2.5" style="stroke:#181818;stroke-width:0.5;" width="86" x="71" y="169"/><ellipse cx="86" cy="185" fill="#C2C2C2" rx="11" ry="11" style="stroke:#181818;stroke-width:1.0;"/><path d="M88.4731,191.1431 Q87.8921,191.4419 87.2529,191.5913 Q86.6138,191.7407 85.9082,191.7407 Q83.4014,191.7407 82.0815,190.0889 Q80.7617,188.437 80.7617,185.3159 Q80.7617,182.1865 82.0815,180.5347 Q83.4014,178.8828 85.9082,178.8828 Q86.6138,178.8828 87.2612,179.0322 Q87.9087,179.1816 88.4731,179.4805 L88.4731,182.2031 Q87.8423,181.6221 87.2488,181.3523 Q86.6553,181.0825 86.0244,181.0825 Q84.6797,181.0825 83.9949,182.1492 Q83.3101,183.2158 83.3101,185.3159 Q83.3101,187.4077 83.9949,188.4744 Q84.6797,189.541 86.0244,189.541 Q86.6553,189.541 87.2488,189.2712 Q87.8423,189.0015 88.4731,188.4204 Z " fill="#000000"/><text fill="#000000" font-family="sans-serif" font-size="14" lengthAdjust="spacing" textLength="54" x="100" y="190.291">&lt;Task&gt;</text><line style="stroke:#181818;stroke-width:0.5;" x1="72" x2="156" y1="201" y2="201"/><line style="stroke:#181818;stroke-width:0.5;" x1="72" x2="156" y1="209" y2="209"/></g><!--MD5=[e90b8bcc098258961c374a92a6779978]
reverse link TaskInterface to TaskController--><g id="link_TaskInterface_TaskController"><path codeLine="30" d="M437.75,193 C463.38,193 491.09,193 516.23,193 " fill="none" id="TaskInterface-backto-TaskController" style="stroke:#181818;stroke-width:1.0;stroke-dasharray:7.0,7.0;"/><polygon fill="#181818" points="432.8,193,441.8,197,437.8,193,441.8,189,432.8,193" style="stroke:#181818;stroke-width:1.0;"/><text fill="#000000" font-family="sans-serif" font-size="13" lengthAdjust="spacing" textLength="49" x="449.25" y="186.5684">&lt;uses&gt;</text></g><!--MD5=[be8c5b0d558be7be8c1879d9c82c1eae]
link Task to TaskInterface--><g id="link_Task_TaskInterface"><path codeLine="40" d="M156.92,203.11 C182.88,205.31 217.33,206.14 249.64,205.58 " fill="none" id="Task-to-TaskInterface" style="stroke:#181818;stroke-width:1.0;"/><polygon fill="none" points="239.3,198.81,259.45,205.36,239.62,212.81,239.3,198.81" style="stroke:#181818;stroke-width:1.0;"/><text fill="#000000" font-family="sans-serif" font-size="13" lengthAdjust="spacing" textLength="8" x="164.9745" y="201.819">n</text></g><!--MD5=[c4e42b8f4173ba59f71bc8c209042f11]
@startuml task_control_structure_overview

'***************************************************************************

skinparam monochrome true
' skinparam linetype ortho

'***************************************************************************

frame "component: Task-Control - Structure - Overview" {

'***************************************************************************

    folder "core" {
        folder "Task" {
            
            interface TaskInterface {
                start()
                execute()
                get_state()
                terminate()
                get_schedule_interval()
            }

            class TaskController {
                TaskInterface taskList
                register(TaskInterface)
                schedule()
            }

            TaskController .left.> TaskInterface : <uses>
        }
    }

    folder "extern" {
        class Task as "<Task>" {

        }
    }

    Task "n" -right-|> TaskInterface

'***************************************************************************

}

'***************************************************************************

@enduml

@startuml task_control_structure_overview


skinparam monochrome true


frame "component: Task-Control - Structure - Overview" {


    folder "core" {
        folder "Task" {
            
            interface TaskInterface {
                start()
                execute()
                get_state()
                terminate()
                get_schedule_interval()
            }

            class TaskController {
                TaskInterface taskList
                register(TaskInterface)
                schedule()
            }

            TaskController .left.> TaskInterface : <uses>
        }
    }

    folder "extern" {
        class Task as "<Task>" {

        }
    }

    Task "n" -right-|> TaskInterface


}


@enduml

PlantUML version 1.2022.7(Mon Aug 22 19:01:30 CEST 2022)
(GPL source distribution)
Java Runtime: OpenJDK Runtime Environment
JVM: OpenJDK 64-Bit Server VM
Default Encoding: UTF-8
Language: de
Country: DE
--></g></svg>