<?xml version="1.0" encoding="UTF-8" standalone="no"?><svg xmlns="http://www.w3.org/2000/svg" xmlns:xlink="http://www.w3.org/1999/xlink" contentStyleType="text/css" height="468px" preserveAspectRatio="none" style="width:1003px;height:468px;background:#FFFFFF;" version="1.1" viewBox="0 0 1003 468" width="1003px" zoomAndPan="magnify"><defs/><g><!--MD5=[a50709bd918e361c129b2a3dcc42fcc0]
cluster class: RPi-Control - Movement-Detection - Context--><g id="cluster_class: RPi-Control - Movement-Detection - Context"><rect fill="none" height="455" rx="2.5" ry="2.5" style="stroke:#181818;stroke-width:1.0;" width="990" x="7" y="7"/><path d="M395,7 L395,16.4883 L385,26.4883 L7,26.4883 " fill="none" style="stroke:#181818;stroke-width:1.0;"/><text fill="#000000" font-family="sans-serif" font-size="14" font-weight="bold" lengthAdjust="spacing" textLength="378" x="10" y="21.5352">class: RPi-Control - Movement-Detection - Context</text></g><!--MD5=[f04600f0575a07dfe97362a654bdaa04]
cluster kernel--><g id="cluster_kernel"><path d="M33.5,213 L79.5,213 A3.75,3.75 0 0 1 82,215.5 L89,235.4883 L395.5,235.4883 A2.5,2.5 0 0 1 398,237.9883 L398,309.5 A2.5,2.5 0 0 1 395.5,312 L33.5,312 A2.5,2.5 0 0 1 31,309.5 L31,215.5 A2.5,2.5 0 0 1 33.5,213 " fill="none" style="stroke:#000000;stroke-width:1.5;"/><line style="stroke:#000000;stroke-width:1.5;" x1="31" x2="89" y1="235.4883" y2="235.4883"/><text fill="#000000" font-family="sans-serif" font-size="14" font-weight="bold" lengthAdjust="spacing" textLength="45" x="35" y="228.5352">kernel</text></g><!--MD5=[8dbeeff22990824a4da5b8f9ab664954]
cluster driver/movement_detection--><g id="cluster_driver/movement_detection"><path d="M424.5,213 L625.5,213 A3.75,3.75 0 0 1 628,215.5 L635,235.4883 L635.5,235.4883 A2.5,2.5 0 0 1 638,237.9883 L638,435.5 A2.5,2.5 0 0 1 635.5,438 L424.5,438 A2.5,2.5 0 0 1 422,435.5 L422,215.5 A2.5,2.5 0 0 1 424.5,213 " fill="none" style="stroke:#000000;stroke-width:1.5;"/><line style="stroke:#000000;stroke-width:1.5;" x1="422" x2="635" y1="235.4883" y2="235.4883"/><text fill="#000000" font-family="sans-serif" font-size="14" font-weight="bold" lengthAdjust="spacing" textLength="200" x="426" y="228.5352">driver/movement_detection</text></g><!--MD5=[59e9faf83e5ffb743ef5750f57e8e967]
cluster protocol--><g id="cluster_protocol"><path d="M664.5,213 L725.5,213 A3.75,3.75 0 0 1 728,215.5 L735,235.4883 L970.5,235.4883 A2.5,2.5 0 0 1 973,237.9883 L973,309.5 A2.5,2.5 0 0 1 970.5,312 L664.5,312 A2.5,2.5 0 0 1 662,309.5 L662,215.5 A2.5,2.5 0 0 1 664.5,213 " fill="none" style="stroke:#000000;stroke-width:1.5;"/><line style="stroke:#000000;stroke-width:1.5;" x1="662" x2="735" y1="235.4883" y2="235.4883"/><text fill="#000000" font-family="sans-serif" font-size="14" font-weight="bold" lengthAdjust="spacing" textLength="60" x="666" y="228.5352">protocol</text></g><!--MD5=[114d050326939d47b7887198c1de68ee]
cluster modules/movement_detection--><g id="cluster_modules/movement_detection"><path d="M389.5,50 L610.5,50 A3.75,3.75 0 0 1 613,52.5 L620,72.4883 L670.5,72.4883 A2.5,2.5 0 0 1 673,74.9883 L673,161.5 A2.5,2.5 0 0 1 670.5,164 L389.5,164 A2.5,2.5 0 0 1 387,161.5 L387,52.5 A2.5,2.5 0 0 1 389.5,50 " fill="none" style="stroke:#000000;stroke-width:1.5;"/><line style="stroke:#000000;stroke-width:1.5;" x1="387" x2="620" y1="72.4883" y2="72.4883"/><text fill="#000000" font-family="sans-serif" font-size="14" font-weight="bold" lengthAdjust="spacing" textLength="220" x="391" y="65.5352">modules/movement_detection</text></g><!--MD5=[dd9a97e507cc1d516dfc0b3e9e9c1789]
class task_interface--><g id="elem_task_interface"><rect codeLine="15" fill="#F1F1F1" height="48" id="task_interface" rx="2.5" ry="2.5" style="stroke:#181818;stroke-width:0.5;" width="127" x="47.5" y="248"/><ellipse cx="62.5" cy="264" fill="#B1B1B1" rx="11" ry="11" style="stroke:#181818;stroke-width:1.0;"/><path d="M58.9277,260.2651 L58.9277,258.1069 L66.3071,258.1069 L66.3071,260.2651 L63.8418,260.2651 L63.8418,268.3418 L66.3071,268.3418 L66.3071,270.5 L58.9277,270.5 L58.9277,268.3418 L61.3931,268.3418 L61.3931,260.2651 Z " fill="#000000"/><text fill="#000000" font-family="sans-serif" font-size="14" font-style="italic" lengthAdjust="spacing" textLength="95" x="76.5" y="269.291">task_interface</text><line style="stroke:#181818;stroke-width:0.5;" x1="48.5" x2="173.5" y1="280" y2="280"/><line style="stroke:#181818;stroke-width:0.5;" x1="48.5" x2="173.5" y1="288" y2="288"/></g><!--MD5=[0a36e66a645a439e9db5de35c7103aeb]
class signal_slot_interface--><g id="elem_signal_slot_interface"><rect codeLine="19" fill="#F1F1F1" height="48" id="signal_slot_interface" rx="2.5" ry="2.5" style="stroke:#181818;stroke-width:0.5;" width="172" x="210" y="248"/><ellipse cx="225" cy="264" fill="#B1B1B1" rx="11" ry="11" style="stroke:#181818;stroke-width:1.0;"/><path d="M221.4277,260.2651 L221.4277,258.1069 L228.8071,258.1069 L228.8071,260.2651 L226.3418,260.2651 L226.3418,268.3418 L228.8071,268.3418 L228.8071,270.5 L221.4277,270.5 L221.4277,268.3418 L223.8931,268.3418 L223.8931,260.2651 Z " fill="#000000"/><text fill="#000000" font-family="sans-serif" font-size="14" font-style="italic" lengthAdjust="spacing" textLength="140" x="239" y="269.291">signal_slot_interface</text><line style="stroke:#181818;stroke-width:0.5;" x1="211" x2="381" y1="280" y2="280"/><line style="stroke:#181818;stroke-width:0.5;" x1="211" x2="381" y1="288" y2="288"/></g><!--MD5=[d7f3e9bb3dfbc0454478dca41479fd38]
entity sensor_driver--><g id="elem_sensor_driver"><rect fill="#DDDDDD" height="62.9766" rx="2.5" ry="2.5" style="stroke:#181818;stroke-width:0.5;" width="132" x="464" y="359"/><rect fill="#DDDDDD" height="10" style="stroke:#181818;stroke-width:0.5;" width="15" x="576" y="364"/><rect fill="#DDDDDD" height="2" style="stroke:#181818;stroke-width:0.5;" width="4" x="574" y="366"/><rect fill="#DDDDDD" height="2" style="stroke:#181818;stroke-width:0.5;" width="4" x="574" y="370"/><text fill="#000000" font-family="sans-serif" font-size="14" lengthAdjust="spacing" textLength="92" x="479" y="392.5352">«component»</text><text fill="#000000" font-family="sans-serif" font-size="14" lengthAdjust="spacing" textLength="92" x="479" y="409.0234">Sensor Driver</text></g><!--MD5=[ca7b4671b4f99434317a27c41500de8e]
class sensor_interface--><g id="elem_sensor_interface"><rect codeLine="31" fill="#F1F1F1" height="48" id="sensor_interface" rx="2.5" ry="2.5" style="stroke:#181818;stroke-width:0.5;" width="145" x="457.5" y="248"/><ellipse cx="472.5" cy="264" fill="#B1B1B1" rx="11" ry="11" style="stroke:#181818;stroke-width:1.0;"/><path d="M468.9277,260.2651 L468.9277,258.1069 L476.3071,258.1069 L476.3071,260.2651 L473.8418,260.2651 L473.8418,268.3418 L476.3071,268.3418 L476.3071,270.5 L468.9277,270.5 L468.9277,268.3418 L471.3931,268.3418 L471.3931,260.2651 Z " fill="#000000"/><text fill="#000000" font-family="sans-serif" font-size="14" font-style="italic" lengthAdjust="spacing" textLength="113" x="486.5" y="269.291">sensor_interface</text><line style="stroke:#181818;stroke-width:0.5;" x1="458.5" x2="601.5" y1="280" y2="280"/><line style="stroke:#181818;stroke-width:0.5;" x1="458.5" x2="601.5" y1="288" y2="288"/></g><!--MD5=[50bff96181e7602aa8afb1b770bfc36a]
class json_parser--><g id="elem_json_parser"><rect codeLine="38" fill="#F1F1F1" height="48" id="json_parser" rx="2.5" ry="2.5" style="stroke:#181818;stroke-width:0.5;" width="112" x="678" y="248"/><ellipse cx="693" cy="264" fill="#B1B1B1" rx="11" ry="11" style="stroke:#181818;stroke-width:1.0;"/><path d="M689.4277,260.2651 L689.4277,258.1069 L696.8071,258.1069 L696.8071,260.2651 L694.3418,260.2651 L694.3418,268.3418 L696.8071,268.3418 L696.8071,270.5 L689.4277,270.5 L689.4277,268.3418 L691.8931,268.3418 L691.8931,260.2651 Z " fill="#000000"/><text fill="#000000" font-family="sans-serif" font-size="14" font-style="italic" lengthAdjust="spacing" textLength="80" x="707" y="269.291">json_parser</text><line style="stroke:#181818;stroke-width:0.5;" x1="679" x2="789" y1="280" y2="280"/><line style="stroke:#181818;stroke-width:0.5;" x1="679" x2="789" y1="288" y2="288"/></g><!--MD5=[6e4117c2c5f7e2be1891b8a2283bf9f5]
class mqtt_interface--><g id="elem_mqtt_interface"><rect codeLine="42" fill="#F1F1F1" height="48" id="mqtt_interface" rx="2.5" ry="2.5" style="stroke:#181818;stroke-width:0.5;" width="131" x="825.5" y="248"/><ellipse cx="840.5" cy="264" fill="#B1B1B1" rx="11" ry="11" style="stroke:#181818;stroke-width:1.0;"/><path d="M836.9277,260.2651 L836.9277,258.1069 L844.3071,258.1069 L844.3071,260.2651 L841.8418,260.2651 L841.8418,268.3418 L844.3071,268.3418 L844.3071,270.5 L836.9277,270.5 L836.9277,268.3418 L839.3931,268.3418 L839.3931,260.2651 Z " fill="#000000"/><text fill="#000000" font-family="sans-serif" font-size="14" font-style="italic" lengthAdjust="spacing" textLength="99" x="854.5" y="269.291">mqtt_interface</text><line style="stroke:#181818;stroke-width:0.5;" x1="826.5" x2="955.5" y1="280" y2="280"/><line style="stroke:#181818;stroke-width:0.5;" x1="826.5" x2="955.5" y1="288" y2="288"/></g><!--MD5=[7018cc93bfae183b85b6aa06ba5c1ad1]
entity movement_detection--><g id="elem_movement_detection"><rect fill="#DDDDDD" height="62.9766" rx="2.5" ry="2.5" style="stroke:#181818;stroke-width:0.5;" width="254" x="403" y="85"/><rect fill="#DDDDDD" height="10" style="stroke:#181818;stroke-width:0.5;" width="15" x="637" y="90"/><rect fill="#DDDDDD" height="2" style="stroke:#181818;stroke-width:0.5;" width="4" x="635" y="92"/><rect fill="#DDDDDD" height="2" style="stroke:#181818;stroke-width:0.5;" width="4" x="635" y="96"/><text fill="#000000" font-family="sans-serif" font-size="14" lengthAdjust="spacing" textLength="92" x="418" y="118.5352">«component»</text><text fill="#000000" font-family="sans-serif" font-size="14" lengthAdjust="spacing" textLength="214" x="418" y="135.0234">Movement Detection Controller</text></g><!--MD5=[06bca21c2e512219014117c5f317e5a9]
link movement_detection to task_interface--><g id="link_movement_detection_task_interface"><path codeLine="55" d="M402.61,137.34 C337.53,150.71 258.48,172.08 193,205 C177.96,212.56 163.12,223.23 150.29,233.79 " fill="none" id="movement_detection-to-task_interface" style="stroke:#181818;stroke-width:1.0;stroke-dasharray:7.0,7.0;"/><polygon fill="none" points="155.03,238.95,135.35,246.82,145.82,228.4,155.03,238.95" style="stroke:#181818;stroke-width:1.0;"/></g><!--MD5=[40a097edef2c76140abd5c496842ae02]
link movement_detection to signal_slot_interface--><g id="link_movement_detection_signal_slot_interface"><path codeLine="56" d="M482.93,148.38 C440.14,176.45 377.64,217.44 336.9,244.17 " fill="none" id="movement_detection-to-signal_slot_interface" style="stroke:#181818;stroke-width:1.0;stroke-dasharray:7.0,7.0;"/><polygon fill="#181818" points="332.81,246.85,342.5276,245.2476,336.9878,244.103,338.1324,238.5631,332.81,246.85" style="stroke:#181818;stroke-width:1.0;"/><text fill="#000000" font-family="sans-serif" font-size="13" lengthAdjust="spacing" textLength="49" x="434" y="193.5684">&lt;uses&gt;</text></g><!--MD5=[c7917c6ba2763f899d69e65684d7affd]
link movement_detection to sensor_interface--><g id="link_movement_detection_sensor_interface"><path codeLine="57" d="M530,148.19 C530,175.41 530,214.88 530,241.68 " fill="none" id="movement_detection-to-sensor_interface" style="stroke:#181818;stroke-width:1.0;stroke-dasharray:7.0,7.0;"/><polygon fill="#181818" points="530,246.35,534,237.35,530,241.35,526,237.35,530,246.35" style="stroke:#181818;stroke-width:1.0;"/><text fill="#000000" font-family="sans-serif" font-size="13" lengthAdjust="spacing" textLength="49" x="531" y="193.5684">&lt;uses&gt;</text></g><!--MD5=[3a1b247a4f5cf37bd3169612cbe436de]
link movement_detection to json_parser--><g id="link_movement_detection_json_parser"><path codeLine="58" d="M570.79,148.19 C607.92,176.13 662.21,216.98 697.82,243.78 " fill="none" id="movement_detection-to-json_parser" style="stroke:#181818;stroke-width:1.0;stroke-dasharray:7.0,7.0;"/><polygon fill="#181818" points="701.73,246.72,696.93,238.12,697.73,243.72,692.13,244.52,701.73,246.72" style="stroke:#181818;stroke-width:1.0;"/><text fill="#000000" font-family="sans-serif" font-size="13" lengthAdjust="spacing" textLength="49" x="633" y="193.5684">&lt;uses&gt;</text></g><!--MD5=[11d2102a49f7ccb56522fdc35fb24a8e]
link movement_detection to mqtt_interface--><g id="link_movement_detection_mqtt_interface"><path codeLine="59" d="M657.44,147 C706.15,160.97 761.19,180.13 808,205 C827.45,215.33 846.84,230.42 861.99,243.56 " fill="none" id="movement_detection-to-mqtt_interface" style="stroke:#181818;stroke-width:1.0;stroke-dasharray:7.0,7.0;"/><polygon fill="#181818" points="865.41,246.57,861.3046,237.6176,861.6596,243.2633,856.0139,243.6183,865.41,246.57" style="stroke:#181818;stroke-width:1.0;"/><text fill="#000000" font-family="sans-serif" font-size="13" lengthAdjust="spacing" textLength="49" x="787" y="193.5684">&lt;uses&gt;</text></g><!--MD5=[f34b0faae153ca0f31ef944764d77a5b]
reverse link sensor_interface to sensor_driver--><g id="link_sensor_interface_sensor_driver"><path codeLine="61" d="M530,317.77 C530,331.46 530,346.2 530,358.73 " fill="none" id="sensor_interface-backto-sensor_driver" style="stroke:#181818;stroke-width:1.0;stroke-dasharray:7.0,7.0;"/><polygon fill="none" points="523,317.81,530,297.81,537,317.81,523,317.81" style="stroke:#181818;stroke-width:1.0;"/></g><!--MD5=[a85471988980919e1f9bc71e42de7e21]
@startuml movement_detection_context

'***************************************************************************

skinparam monochrome true
' skinparam linetype ortho

'***************************************************************************

frame "class: RPi-Control - Movement-Detection - Context" {

'***************************************************************************

    folder "kernel" {

        interface task_interface {

        }

        interface signal_slot_interface {

        }
    }

    folder "driver/movement_detection" {

        component sensor_driver #DDDDDD [
            <<component>>
            Sensor Driver
        ]

        interface sensor_interface {

        }
    }

    folder "protocol" {

        interface json_parser {

        }

        interface mqtt_interface {

        }
    }

    folder "modules/movement_detection" {

        component movement_detection #DDDDDD [
            <<component>>
            Movement Detection Controller
        ]
    }

    movement_detection .down.|> task_interface
    movement_detection .down.> signal_slot_interface : <uses>
    movement_detection .down.> sensor_interface : <uses>
    movement_detection .down.> json_parser : <uses>
    movement_detection .down.> mqtt_interface : <uses>

    sensor_driver .up.|> sensor_interface

'***************************************************************************

}

'***************************************************************************

@enduml

@startuml movement_detection_context


skinparam monochrome true


frame "class: RPi-Control - Movement-Detection - Context" {


    folder "kernel" {

        interface task_interface {

        }

        interface signal_slot_interface {

        }
    }

    folder "driver/movement_detection" {

        component sensor_driver #DDDDDD [
            <<component>>
            Sensor Driver
        ]

        interface sensor_interface {

        }
    }

    folder "protocol" {

        interface json_parser {

        }

        interface mqtt_interface {

        }
    }

    folder "modules/movement_detection" {

        component movement_detection #DDDDDD [
            <<component>>
            Movement Detection Controller
        ]
    }

    movement_detection .down.|> task_interface
    movement_detection .down.> signal_slot_interface : <uses>
    movement_detection .down.> sensor_interface : <uses>
    movement_detection .down.> json_parser : <uses>
    movement_detection .down.> mqtt_interface : <uses>

    sensor_driver .up.|> sensor_interface


}


@enduml

PlantUML version 1.2022.7(Mon Aug 22 19:01:30 CEST 2022)
(GPL source distribution)
Java Runtime: OpenJDK Runtime Environment
JVM: OpenJDK 64-Bit Server VM
Default Encoding: UTF-8
Language: de
Country: DE
--></g></svg>