<?xml version="1.0" encoding="UTF-8" standalone="no"?><svg xmlns="http://www.w3.org/2000/svg" xmlns:xlink="http://www.w3.org/1999/xlink" contentStyleType="text/css" height="323px" preserveAspectRatio="none" style="width:668px;height:323px;background:#FFFFFF;" version="1.1" viewBox="0 0 668 323" width="668px" zoomAndPan="magnify"><defs/><g><!--MD5=[6df37dc38919cdab85d3827d957aa12d]
cluster component: rpi_frmwark - structure - kernel--><g id="cluster_component: rpi_frmwark - structure - kernel"><rect fill="none" height="310" rx="2.5" ry="2.5" style="stroke:#181818;stroke-width:1.0;" width="655" x="7" y="7"/><path d="M323,7 L323,17.6094 L313,27.6094 L7,27.6094 " fill="none" style="stroke:#181818;stroke-width:1.0;"/><text fill="#000000" font-family="sans-serif" font-size="14" font-weight="bold" lengthAdjust="spacing" textLength="306" x="10" y="22.5332">component: rpi_frmwark - structure - kernel</text></g><!--MD5=[f04600f0575a07dfe97362a654bdaa04]
cluster kernel--><g id="cluster_kernel"><rect fill="none" height="242" rx="2.5" ry="2.5" style="stroke:#181818;stroke-width:1.0;" width="607" x="31" y="51"/><rect fill="none" height="10" style="stroke:#181818;stroke-width:1.0;" width="15" x="618" y="56"/><rect fill="none" height="2" style="stroke:#181818;stroke-width:1.0;" width="4" x="616" y="58"/><rect fill="none" height="2" style="stroke:#181818;stroke-width:1.0;" width="4" x="616" y="62"/><text fill="#000000" font-family="sans-serif" font-size="14" font-weight="bold" lengthAdjust="spacing" textLength="45" x="312" y="78.5332">kernel</text></g><!--MD5=[9c2095476b4fe227be2bfa51a11a4f31]
entity signal_slot--><g id="elem_signal_slot"><a href="../../readme/readme_signal_slot.md" target="_top" title="Click: Go to" xlink:actuate="onRequest" xlink:href="../../readme/readme_signal_slot.md" xlink:show="new" xlink:title="Click: Go to" xlink:type="simple"><rect fill="#F1F1F1" height="65.2188" rx="2.5" ry="2.5" style="stroke:#181818;stroke-width:0.5;" width="126" x="174" y="87"/><rect fill="#F1F1F1" height="10" style="stroke:#181818;stroke-width:0.5;" width="15" x="280" y="92"/><rect fill="#F1F1F1" height="2" style="stroke:#181818;stroke-width:0.5;" width="4" x="278" y="94"/><rect fill="#F1F1F1" height="2" style="stroke:#181818;stroke-width:0.5;" width="4" x="278" y="98"/><text fill="#000000" font-family="sans-serif" font-size="14" lengthAdjust="spacing" textLength="86" x="189" y="121.5332">«component»</text><text fill="#000000" font-family="sans-serif" font-size="14" lengthAdjust="spacing" textLength="68" x="189" y="139.1426">Signal-Slot</text></a></g><!--MD5=[13dff29a2267c98a2d820d96b9b744fb]
entity timer--><g id="elem_timer"><rect fill="#F1F1F1" height="65.2188" rx="2.5" ry="2.5" style="stroke:#181818;stroke-width:0.5;" width="126" x="335" y="87"/><rect fill="#F1F1F1" height="10" style="stroke:#181818;stroke-width:0.5;" width="15" x="441" y="92"/><rect fill="#F1F1F1" height="2" style="stroke:#181818;stroke-width:0.5;" width="4" x="439" y="94"/><rect fill="#F1F1F1" height="2" style="stroke:#181818;stroke-width:0.5;" width="4" x="439" y="98"/><text fill="#000000" font-family="sans-serif" font-size="14" lengthAdjust="spacing" textLength="86" x="350" y="121.5332">«component»</text><text fill="#000000" font-family="sans-serif" font-size="14" lengthAdjust="spacing" textLength="36" x="350" y="139.1426">Timer</text></g><!--MD5=[6a8916bd51e6cd4382287d7ba556a282]
entity task_comtrol--><g id="elem_task_comtrol"><rect fill="#F1F1F1" height="65.2188" rx="2.5" ry="2.5" style="stroke:#181818;stroke-width:0.5;" width="126" x="496" y="87"/><rect fill="#F1F1F1" height="10" style="stroke:#181818;stroke-width:0.5;" width="15" x="602" y="92"/><rect fill="#F1F1F1" height="2" style="stroke:#181818;stroke-width:0.5;" width="4" x="600" y="94"/><rect fill="#F1F1F1" height="2" style="stroke:#181818;stroke-width:0.5;" width="4" x="600" y="98"/><text fill="#000000" font-family="sans-serif" font-size="14" lengthAdjust="spacing" textLength="86" x="511" y="121.5332">«component»</text><text fill="#000000" font-family="sans-serif" font-size="14" lengthAdjust="spacing" textLength="82" x="511" y="139.1426">Task-Control</text></g><!--MD5=[de349fa83d8887ffaec3c9d56872a47b]
entity modules--><g id="elem_modules"><rect fill="#F1F1F1" height="65.2188" rx="2.5" ry="2.5" style="stroke:#181818;stroke-width:0.5;" width="126" x="174" y="212"/><rect fill="#F1F1F1" height="10" style="stroke:#181818;stroke-width:0.5;" width="15" x="280" y="217"/><rect fill="#F1F1F1" height="2" style="stroke:#181818;stroke-width:0.5;" width="4" x="278" y="219"/><rect fill="#F1F1F1" height="2" style="stroke:#181818;stroke-width:0.5;" width="4" x="278" y="223"/><text fill="#000000" font-family="sans-serif" font-size="14" lengthAdjust="spacing" textLength="86" x="189" y="246.5332">«component»</text><text fill="#000000" font-family="sans-serif" font-size="14" lengthAdjust="spacing" textLength="53" x="189" y="264.1426">Modules</text></g><!--MD5=[16c31a0976e7ee3a54f1b2402d7e20e4]
entity io--><g id="elem_io"><rect fill="#F1F1F1" height="65.2188" rx="2.5" ry="2.5" style="stroke:#181818;stroke-width:0.5;" width="126" x="335" y="212"/><rect fill="#F1F1F1" height="10" style="stroke:#181818;stroke-width:0.5;" width="15" x="441" y="217"/><rect fill="#F1F1F1" height="2" style="stroke:#181818;stroke-width:0.5;" width="4" x="439" y="219"/><rect fill="#F1F1F1" height="2" style="stroke:#181818;stroke-width:0.5;" width="4" x="439" y="223"/><text fill="#000000" font-family="sans-serif" font-size="14" lengthAdjust="spacing" textLength="86" x="350" y="246.5332">«component»</text><text fill="#000000" font-family="sans-serif" font-size="14" lengthAdjust="spacing" textLength="78" x="350" y="264.1426">Input Output</text></g><!--MD5=[6bf952069521877e9614e3a19551f3fb]
entity interfaces--><g id="elem_interfaces"><path d="M49.5,91.5 L90.5,91.5 A3.75,3.75 0 0 1 93,94 L100,112.5 L136.5,112.5 A2.5,2.5 0 0 1 139,115 L139,144.6094 A2.5,2.5 0 0 1 136.5,147.1094 L49.5,147.1094 A2.5,2.5 0 0 1 47,144.6094 L47,94 A2.5,2.5 0 0 1 49.5,91.5 " fill="#F1F1F1" style="stroke:#181818;stroke-width:0.5;"/><line style="stroke:#181818;stroke-width:0.5;" x1="47" x2="100" y1="112.5" y2="112.5"/><text fill="#000000" font-family="sans-serif" font-size="14" lengthAdjust="spacing" textLength="62" x="57" y="134.0332">interfaces</text></g><!--MD5=[2ab5071085c7a2840ccda879f764ab1d]
@startuml rpi_control_frmwrk_diagram_component_kernel

skinparam monochrome true
skinparam linetype ortho
skinparam style strictuml

frame "component: rpi_frmwark - structure - kernel" {

    component kernel {

        folder interfaces {
            
        }

        component signal_slot [
            <<component>>
            Signal-Slot
        ]

        component timer [
            <<component>>
            Timer
        ]

        component task_comtrol [
            <<component>>
            Task-Control
        ]

        component modules [
            <<component>>
            Modules
        ]

        component io [
            <<component>>
            Input Output
        ]

        url of signal_slot is [[../../readme/readme_signal_slot.md {Click: Go to}]]
    }
}
@enduml

PlantUML version 1.2022.7(Mon Aug 22 19:01:30 CEST 2022)
(GPL source distribution)
Java Runtime: OpenJDK Runtime Environment
JVM: OpenJDK Client VM
Default Encoding: Cp1252
Language: de
Country: DE
--></g></svg>