<?xml version="1.0" encoding="UTF-8" standalone="no"?><svg xmlns="http://www.w3.org/2000/svg" xmlns:xlink="http://www.w3.org/1999/xlink" contentStyleType="text/css" height="261px" preserveAspectRatio="none" style="width:736px;height:261px;background:#FFFFFF;" version="1.1" viewBox="0 0 736 261" width="736px" zoomAndPan="magnify"><defs/><g><!--MD5=[be816d14870ec9b1f5a9a4102bff120c]
cluster component: RPI-Control - Driver - The PI-HUT PIR-Sensor--><g id="cluster_component: RPI-Control - Driver - The PI-HUT PIR-Sensor"><rect fill="none" height="248" rx="2.5" ry="2.5" style="stroke:#181818;stroke-width:1.0;" width="723" x="7" y="7"/><path d="M446,7 L446,16.4883 L436,26.4883 L7,26.4883 " fill="none" style="stroke:#181818;stroke-width:1.0;"/><text fill="#000000" font-family="sans-serif" font-size="14" font-weight="bold" lengthAdjust="spacing" textLength="429" x="10" y="21.5352">component: RPI-Control - Driver - The PI-HUT PIR-Sensor</text></g><!--MD5=[ad1ccc8de92f1bc58f780b3d3b678fdb]
cluster driver--><g id="cluster_driver"><path d="M33.5,50 L76.5,50 A3.75,3.75 0 0 1 79,52.5 L86,72.4883 L703.5,72.4883 A2.5,2.5 0 0 1 706,74.9883 L706,228.5 A2.5,2.5 0 0 1 703.5,231 L33.5,231 A2.5,2.5 0 0 1 31,228.5 L31,52.5 A2.5,2.5 0 0 1 33.5,50 " fill="none" style="stroke:#000000;stroke-width:1.5;"/><line style="stroke:#000000;stroke-width:1.5;" x1="31" x2="86" y1="72.4883" y2="72.4883"/><text fill="#000000" font-family="sans-serif" font-size="14" font-weight="bold" lengthAdjust="spacing" textLength="42" x="35" y="65.5352">driver</text></g><!--MD5=[2dc4768fbbae8129d26580ac6b2c3332]
cluster movement_detection--><g id="cluster_movement_detection"><path d="M272.5,93 L423.5,93 A3.75,3.75 0 0 1 426,95.5 L433,115.4883 L679.5,115.4883 A2.5,2.5 0 0 1 682,117.9883 L682,204.5 A2.5,2.5 0 0 1 679.5,207 L272.5,207 A2.5,2.5 0 0 1 270,204.5 L270,95.5 A2.5,2.5 0 0 1 272.5,93 " fill="none" style="stroke:#000000;stroke-width:1.5;"/><line style="stroke:#000000;stroke-width:1.5;" x1="270" x2="433" y1="115.4883" y2="115.4883"/><text fill="#000000" font-family="sans-serif" font-size="14" font-weight="bold" lengthAdjust="spacing" textLength="150" x="274" y="108.5352">movement_detection</text></g><!--MD5=[be4b2fc352ba81c256e28e3935074b79]
cluster gpio--><g id="cluster_gpio"><path d="M57.5,100.5 L90.5,100.5 A3.75,3.75 0 0 1 93,103 L100,122.9883 L214.5,122.9883 A2.5,2.5 0 0 1 217,125.4883 L217,197 A2.5,2.5 0 0 1 214.5,199.5 L57.5,199.5 A2.5,2.5 0 0 1 55,197 L55,103 A2.5,2.5 0 0 1 57.5,100.5 " fill="none" style="stroke:#000000;stroke-width:1.5;"/><line style="stroke:#000000;stroke-width:1.5;" x1="55" x2="100" y1="122.9883" y2="122.9883"/><text fill="#000000" font-family="sans-serif" font-size="14" font-weight="bold" lengthAdjust="spacing" textLength="32" x="59" y="116.0352">gpio</text></g><!--MD5=[ca7b4671b4f99434317a27c41500de8e]
class sensor_interface--><g id="elem_sensor_interface"><rect codeLine="16" fill="#F1F1F1" height="48" id="sensor_interface" rx="2.5" ry="2.5" style="stroke:#181818;stroke-width:0.5;" width="145" x="520.5" y="135.5"/><ellipse cx="535.5" cy="151.5" fill="#B1B1B1" rx="11" ry="11" style="stroke:#181818;stroke-width:1.0;"/><path d="M531.9277,147.7651 L531.9277,145.6069 L539.3071,145.6069 L539.3071,147.7651 L536.8418,147.7651 L536.8418,155.8418 L539.3071,155.8418 L539.3071,158 L531.9277,158 L531.9277,155.8418 L534.3931,155.8418 L534.3931,147.7651 Z " fill="#000000"/><text fill="#000000" font-family="sans-serif" font-size="14" font-style="italic" lengthAdjust="spacing" textLength="113" x="549.5" y="156.791">sensor_interface</text><line style="stroke:#181818;stroke-width:0.5;" x1="521.5" x2="664.5" y1="167.5" y2="167.5"/><line style="stroke:#181818;stroke-width:0.5;" x1="521.5" x2="664.5" y1="175.5" y2="175.5"/></g><!--MD5=[d7f3e9bb3dfbc0454478dca41479fd38]
entity sensor_driver--><g id="elem_sensor_driver"><rect fill="#F1F1F1" height="62.9766" rx="2.5" ry="2.5" style="stroke:#181818;stroke-width:0.5;" width="199" x="286.5" y="128"/><rect fill="#F1F1F1" height="10" style="stroke:#181818;stroke-width:0.5;" width="15" x="465.5" y="133"/><rect fill="#F1F1F1" height="2" style="stroke:#181818;stroke-width:0.5;" width="4" x="463.5" y="135"/><rect fill="#F1F1F1" height="2" style="stroke:#181818;stroke-width:0.5;" width="4" x="463.5" y="139"/><text fill="#000000" font-family="sans-serif" font-size="14" lengthAdjust="spacing" textLength="54" x="301.5" y="161.5352">«driver»</text><text fill="#000000" font-family="sans-serif" font-size="14" lengthAdjust="spacing" textLength="159" x="301.5" y="178.0234">The PI-HUT PIR-Sensor</text></g><!--MD5=[be859338c5a8bb690a2963dea54502a2]
class gpio_interface--><g id="elem_gpio_interface"><rect codeLine="29" fill="#F1F1F1" height="48" id="gpio_interface" rx="2.5" ry="2.5" style="stroke:#181818;stroke-width:0.5;" width="130" x="71" y="135.5"/><ellipse cx="86" cy="151.5" fill="#B1B1B1" rx="11" ry="11" style="stroke:#181818;stroke-width:1.0;"/><path d="M82.4277,147.7651 L82.4277,145.6069 L89.8071,145.6069 L89.8071,147.7651 L87.3418,147.7651 L87.3418,155.8418 L89.8071,155.8418 L89.8071,158 L82.4277,158 L82.4277,155.8418 L84.8931,155.8418 L84.8931,147.7651 Z " fill="#000000"/><text fill="#000000" font-family="sans-serif" font-size="14" font-style="italic" lengthAdjust="spacing" textLength="98" x="100" y="156.791">gpio_interface</text><line style="stroke:#181818;stroke-width:0.5;" x1="72" x2="200" y1="167.5" y2="167.5"/><line style="stroke:#181818;stroke-width:0.5;" x1="72" x2="200" y1="175.5" y2="175.5"/></g><!--MD5=[66383e49d5cdb819d89f72b36a90d6cd]
link sensor_driver to sensor_interface--><g id="link_sensor_driver_sensor_interface"><path codeLine="25" d="M485.86,159.5 C490.15,159.5 494.44,159.5 498.73,159.5 " fill="none" id="sensor_driver-to-sensor_interface" style="stroke:#181818;stroke-width:1.0;"/><polygon fill="none" points="498.67,152.5,518.67,159.5,498.67,166.5,498.67,152.5" style="stroke:#181818;stroke-width:1.0;"/></g><!--MD5=[1bcedf9231f517fe18a9c992e50d55f0]
reverse link gpio_interface to sensor_driver--><g id="link_gpio_interface_sensor_driver"><path codeLine="34" d="M207.82,159.5 C232.22,159.5 259.95,159.5 286.15,159.5 " fill="none" id="gpio_interface-backto-sensor_driver" style="stroke:#181818;stroke-width:1.0;stroke-dasharray:7.0,7.0;"/><polygon fill="#181818" points="202.87,159.5,211.87,163.5,207.87,159.5,211.87,155.5,202.87,159.5" style="stroke:#181818;stroke-width:1.0;"/><text fill="#000000" font-family="sans-serif" font-size="13" lengthAdjust="spacing" textLength="49" x="219.25" y="153.0684">&lt;uses&gt;</text></g><!--MD5=[861397bdc774f473227639cb7baa8dff]
@startuml driver_the_pi_hut_pir_sensor_structure

'***************************************************************************

skinparam monochrome true
' skinparam linetype ortho

'***************************************************************************

frame "component: RPI-Control - Driver - The PI-HUT PIR-Sensor" {

'***************************************************************************

folder "driver" {
    folder "movement_detection" {

        interface sensor_interface {

        }

        component sensor_driver [
            <<driver>>
            The PI-HUT PIR-Sensor
        ]

        sensor_driver -right-|> sensor_interface
    }

    folder "gpio" {
        interface gpio_interface {

        }
    }

    sensor_driver .left.> gpio_interface : <uses>
}

'***************************************************************************

}

'***************************************************************************

@enduml

@startuml driver_the_pi_hut_pir_sensor_structure


skinparam monochrome true


frame "component: RPI-Control - Driver - The PI-HUT PIR-Sensor" {


folder "driver" {
    folder "movement_detection" {

        interface sensor_interface {

        }

        component sensor_driver [
            <<driver>>
            The PI-HUT PIR-Sensor
        ]

        sensor_driver -right-|> sensor_interface
    }

    folder "gpio" {
        interface gpio_interface {

        }
    }

    sensor_driver .left.> gpio_interface : <uses>
}


}


@enduml

PlantUML version 1.2022.7(Mon Aug 22 19:01:30 CEST 2022)
(GPL source distribution)
Java Runtime: OpenJDK Runtime Environment
JVM: OpenJDK 64-Bit Server VM
Default Encoding: UTF-8
Language: de
Country: DE
--></g></svg>