<?xml version="1.0" encoding="UTF-8" standalone="no"?><svg xmlns="http://www.w3.org/2000/svg" xmlns:xlink="http://www.w3.org/1999/xlink" contentStyleType="text/css" height="142px" preserveAspectRatio="none" style="width:654px;height:142px;background:#FFFFFF;" version="1.1" viewBox="0 0 654 142" width="654px" zoomAndPan="magnify"><defs/><g><rect fill="#FFFFFF" height="136.0883" style="stroke:#000000;stroke-width:1.5;" width="648.5" x="0" y="0"/><path d="M349,0 L349,9.4883 L339,19.4883 L0,19.4883 " fill="none" style="stroke:#000000;stroke-width:1.5;"/><text fill="#000000" font-family="sans-serif" font-size="14" lengthAdjust="spacing" textLength="339" x="3" y="14.5352">state: RPi-Control - Keypad - Task State-Machine</text><ellipse cx="21" cy="108.0883" fill="#222222" rx="10" ry="10" style="stroke:none;stroke-width:1.0;"/><g id="RELEASED"><rect fill="#F1F1F1" height="50" rx="12.5" ry="12.5" style="stroke:#181818;stroke-width:0.5;" width="88" x="66" y="83.0883"/><line style="stroke:#181818;stroke-width:0.5;" x1="66" x2="154" y1="109.5766" y2="109.5766"/><text fill="#000000" font-family="sans-serif" font-size="14" lengthAdjust="spacing" textLength="68" x="76" y="101.6234">RELEASED</text></g><g id="PRESSED"><rect fill="#F1F1F1" height="50" rx="12.5" ry="12.5" style="stroke:#181818;stroke-width:0.5;" width="79" x="271.5" y="83.0883"/><line style="stroke:#181818;stroke-width:0.5;" x1="271.5" x2="350.5" y1="109.5766" y2="109.5766"/><text fill="#000000" font-family="sans-serif" font-size="14" lengthAdjust="spacing" textLength="59" x="281.5" y="101.6234">PRESSED</text></g><g id="DOWN"><rect fill="#F1F1F1" height="50" rx="12.5" ry="12.5" style="stroke:#181818;stroke-width:0.5;" width="63" x="385.5" y="83.0883"/><line style="stroke:#181818;stroke-width:0.5;" x1="385.5" x2="448.5" y1="109.5766" y2="109.5766"/><text fill="#000000" font-family="sans-serif" font-size="14" lengthAdjust="spacing" textLength="43" x="395.5" y="101.6234">DOWN</text></g><!--MD5=[83d76b72803f145920e42f562f5fac7e]
link *start to RELEASED--><g id="link_*start_RELEASED"><path d="M31.43,108.0883 C40.74,108.0883 50.05,108.0883 59.36,108.0883 " fill="none" id="*start-to-RELEASED" style="stroke:#181818;stroke-width:1.0;"/><polygon fill="#181818" points="64.29,108.0883,55.29,104.0883,59.29,108.0883,55.29,112.0883,64.29,108.0883" style="stroke:#181818;stroke-width:1.0;"/></g><!--MD5=[56ad648df6e847726e772cd18b7336b0]
link RELEASED to PRESSED--><g id="link_RELEASED_PRESSED"><path d="M154.11,108.0883 C186.83,108.0883 231.34,108.0883 264.59,108.0883 " fill="none" id="RELEASED-to-PRESSED" style="stroke:#181818;stroke-width:1.0;"/><polygon fill="#181818" points="269.57,108.0883,260.57,104.0883,264.57,108.0883,260.57,112.0883,269.57,108.0883" style="stroke:#181818;stroke-width:1.0;"/><text fill="#000000" font-family="sans-serif" font-size="13" lengthAdjust="spacing" textLength="81" x="172.25" y="101.6566">user hits key</text></g><!--MD5=[a91185a7be3761c89ea06afeae8733f8]
link PRESSED to DOWN--><g id="link_PRESSED_DOWN"><path d="M350.75,108.0883 C360.07,108.0883 369.39,108.0883 378.72,108.0883 " fill="none" id="PRESSED-to-DOWN" style="stroke:#181818;stroke-width:1.0;"/><polygon fill="#181818" points="383.66,108.0883,374.66,104.0883,378.66,108.0883,374.66,112.0883,383.66,108.0883" style="stroke:#181818;stroke-width:1.0;"/></g><!--MD5=[64c8ec17f44c41a9088d2eceeeaed1c1]
link DOWN to DOWN--><g id="link_DOWN_DOWN"><path d="M448.82,99.1983 C466.83,97.4583 483.5,100.4183 483.5,108.0883 C483.5,114.8583 470.5,117.9583 455.07,117.3983 " fill="none" id="DOWN-to-DOWN" style="stroke:#181818;stroke-width:1.0;"/><polygon fill="#181818" points="450.33,117.0783,459.0475,121.6615,455.3192,117.4071,459.5736,113.6788,450.33,117.0783" style="stroke:#181818;stroke-width:1.0;"/><text fill="#000000" font-family="sans-serif" font-size="13" lengthAdjust="spacing" textLength="152" x="489.5" y="113.1566">user keeps pressing key</text></g><!--MD5=[23795bf62220ed89c56a5cd8294b476d]
link DOWN to RELEASED--><g id="link_DOWN_RELEASED"><path d="M388.64,82.7283 C371.52,69.1583 348.52,53.7983 325,46.6683 C278.21,32.4883 262.19,33.8883 215,46.6683 C191.15,53.1383 167.17,66.5183 148.16,79.1483 " fill="none" id="DOWN-to-RELEASED" style="stroke:#181818;stroke-width:1.0;"/><polygon fill="#181818" points="144.19,81.8383,153.8837,80.0971,148.3281,79.0318,149.3934,73.4762,144.19,81.8383" style="stroke:#181818;stroke-width:1.0;"/><text fill="#000000" font-family="sans-serif" font-size="13" lengthAdjust="spacing" textLength="108" x="216" y="49.6566">user releases key</text></g><!--MD5=[58a444d291e5d11c55b3641a097a924d]
@startuml keypad_state_machine_key

'***************************************************************************

skinparam monochrome true
' skinparam linetype ortho

'***************************************************************************

mainframe state: RPi-Control - Keypad - Task State-Machine

'***************************************************************************

[*] -right-> RELEASED
RELEASED -right-> PRESSED : user hits key
PRESSED -right-> DOWN
DOWN - -> DOWN : user keeps pressing key
DOWN -> RELEASED : user releases key

'***************************************************************************

@enduml

@startuml keypad_state_machine_key


skinparam monochrome true


mainframe state: RPi-Control - Keypad - Task State-Machine


[*] -right-> RELEASED
RELEASED -right-> PRESSED : user hits key
PRESSED -right-> DOWN
DOWN - -> DOWN : user keeps pressing key
DOWN -> RELEASED : user releases key


@enduml

PlantUML version 1.2022.7(Mon Aug 22 19:01:30 CEST 2022)
(GPL source distribution)
Java Runtime: OpenJDK Runtime Environment
JVM: OpenJDK 64-Bit Server VM
Default Encoding: UTF-8
Language: de
Country: DE
--></g></svg>