<?xml version="1.0" encoding="UTF-8" standalone="no"?><svg xmlns="http://www.w3.org/2000/svg" xmlns:xlink="http://www.w3.org/1999/xlink" contentStyleType="text/css" height="342px" preserveAspectRatio="none" style="width:1221px;height:342px;background:#FFFFFF;" version="1.1" viewBox="0 0 1221 342" width="1221px" zoomAndPan="magnify"><defs/><g><!--MD5=[58f578a68a4f560a0293f4bd67f226cd]
cluster component: MCU-TOP - Structure - Context (Interfaces)--><g id="cluster_component: MCU-TOP - Structure - Context (Interfaces)"><rect fill="none" height="329" rx="2.5" ry="2.5" style="stroke:#181818;stroke-width:1.0;" width="1208" x="7" y="7"/><path d="M423,7 L423,16.4883 L413,26.4883 L7,26.4883 " fill="none" style="stroke:#181818;stroke-width:1.0;"/><text fill="#000000" font-family="sans-serif" font-size="14" font-weight="bold" lengthAdjust="spacing" textLength="406" x="10" y="21.5352">component: MCU-TOP - Structure - Context (Interfaces)</text></g><!--MD5=[64e2e010ba86d7988e5cd73bd64f61f9]
cluster ui--><g id="cluster_ui"><path d="M33.5,213 L48.5,213 A3.75,3.75 0 0 1 51,215.5 L58,235.4883 L216.5,235.4883 A2.5,2.5 0 0 1 219,237.9883 L219,309.5 A2.5,2.5 0 0 1 216.5,312 L33.5,312 A2.5,2.5 0 0 1 31,309.5 L31,215.5 A2.5,2.5 0 0 1 33.5,213 " fill="none" style="stroke:#000000;stroke-width:1.5;"/><line style="stroke:#000000;stroke-width:1.5;" x1="31" x2="58" y1="235.4883" y2="235.4883"/><text fill="#000000" font-family="sans-serif" font-size="14" font-weight="bold" lengthAdjust="spacing" textLength="14" x="35" y="228.5352">ui</text></g><!--MD5=[f04600f0575a07dfe97362a654bdaa04]
cluster kernel--><g id="cluster_kernel"><path d="M245.5,213 L291.5,213 A3.75,3.75 0 0 1 294,215.5 L301,235.4883 L774.5,235.4883 A2.5,2.5 0 0 1 777,237.9883 L777,309.5 A2.5,2.5 0 0 1 774.5,312 L245.5,312 A2.5,2.5 0 0 1 243,309.5 L243,215.5 A2.5,2.5 0 0 1 245.5,213 " fill="none" style="stroke:#000000;stroke-width:1.5;"/><line style="stroke:#000000;stroke-width:1.5;" x1="243" x2="301" y1="235.4883" y2="235.4883"/><text fill="#000000" font-family="sans-serif" font-size="14" font-weight="bold" lengthAdjust="spacing" textLength="45" x="247" y="228.5352">kernel</text></g><!--MD5=[b28fcb397abe995d6d4652e4c54b3002]
cluster common--><g id="cluster_common"><path d="M803.5,213 L866.5,213 A3.75,3.75 0 0 1 869,215.5 L876,235.4883 L990.5,235.4883 A2.5,2.5 0 0 1 993,237.9883 L993,309.5 A2.5,2.5 0 0 1 990.5,312 L803.5,312 A2.5,2.5 0 0 1 801,309.5 L801,215.5 A2.5,2.5 0 0 1 803.5,213 " fill="none" style="stroke:#000000;stroke-width:1.5;"/><line style="stroke:#000000;stroke-width:1.5;" x1="801" x2="876" y1="235.4883" y2="235.4883"/><text fill="#000000" font-family="sans-serif" font-size="14" font-weight="bold" lengthAdjust="spacing" textLength="62" x="805" y="228.5352">common</text></g><!--MD5=[59e9faf83e5ffb743ef5750f57e8e967]
cluster protocol--><g id="cluster_protocol"><path d="M1019.5,213 L1080.5,213 A3.75,3.75 0 0 1 1083,215.5 L1090,235.4883 L1188.5,235.4883 A2.5,2.5 0 0 1 1191,237.9883 L1191,309.5 A2.5,2.5 0 0 1 1188.5,312 L1019.5,312 A2.5,2.5 0 0 1 1017,309.5 L1017,215.5 A2.5,2.5 0 0 1 1019.5,213 " fill="none" style="stroke:#000000;stroke-width:1.5;"/><line style="stroke:#000000;stroke-width:1.5;" x1="1017" x2="1090" y1="235.4883" y2="235.4883"/><text fill="#000000" font-family="sans-serif" font-size="14" font-weight="bold" lengthAdjust="spacing" textLength="60" x="1021" y="228.5352">protocol</text></g><!--MD5=[7db2f38f51af09fc51b95fcb7dba2197]
cluster modules/mcu_top--><g id="cluster_modules/mcu_top"><path d="M526.5,50 L658.5,50 A3.75,3.75 0 0 1 661,52.5 L668,72.4883 L685.5,72.4883 A2.5,2.5 0 0 1 688,74.9883 L688,161.5 A2.5,2.5 0 0 1 685.5,164 L526.5,164 A2.5,2.5 0 0 1 524,161.5 L524,52.5 A2.5,2.5 0 0 1 526.5,50 " fill="none" style="stroke:#000000;stroke-width:1.5;"/><line style="stroke:#000000;stroke-width:1.5;" x1="524" x2="668" y1="72.4883" y2="72.4883"/><text fill="#000000" font-family="sans-serif" font-size="14" font-weight="bold" lengthAdjust="spacing" textLength="131" x="528" y="65.5352">modules/mcu_top</text></g><!--MD5=[9fcaaa82b3459abd0fce4930a43f020b]
class console_interface--><g id="elem_console_interface"><rect codeLine="15" fill="#F1F1F1" height="48" id="console_interface" rx="2.5" ry="2.5" style="stroke:#181818;stroke-width:0.5;" width="156" x="47" y="248"/><ellipse cx="62" cy="264" fill="#B1B1B1" rx="11" ry="11" style="stroke:#181818;stroke-width:1.0;"/><path d="M58.4277,260.2651 L58.4277,258.1069 L65.8071,258.1069 L65.8071,260.2651 L63.3418,260.2651 L63.3418,268.3418 L65.8071,268.3418 L65.8071,270.5 L58.4277,270.5 L58.4277,268.3418 L60.8931,268.3418 L60.8931,260.2651 Z " fill="#000000"/><text fill="#000000" font-family="sans-serif" font-size="14" font-style="italic" lengthAdjust="spacing" textLength="124" x="76" y="269.291">Console-Interface</text><line style="stroke:#181818;stroke-width:0.5;" x1="48" x2="202" y1="280" y2="280"/><line style="stroke:#181818;stroke-width:0.5;" x1="48" x2="202" y1="288" y2="288"/></g><!--MD5=[dd9a97e507cc1d516dfc0b3e9e9c1789]
class task_interface--><g id="elem_task_interface"><rect codeLine="22" fill="#F1F1F1" height="48" id="task_interface" rx="2.5" ry="2.5" style="stroke:#181818;stroke-width:0.5;" width="132" x="259" y="248"/><ellipse cx="274" cy="264" fill="#B1B1B1" rx="11" ry="11" style="stroke:#181818;stroke-width:1.0;"/><path d="M270.4277,260.2651 L270.4277,258.1069 L277.8071,258.1069 L277.8071,260.2651 L275.3418,260.2651 L275.3418,268.3418 L277.8071,268.3418 L277.8071,270.5 L270.4277,270.5 L270.4277,268.3418 L272.8931,268.3418 L272.8931,260.2651 Z " fill="#000000"/><text fill="#000000" font-family="sans-serif" font-size="14" font-style="italic" lengthAdjust="spacing" textLength="100" x="288" y="269.291">Task-Interface</text><line style="stroke:#181818;stroke-width:0.5;" x1="260" x2="390" y1="280" y2="280"/><line style="stroke:#181818;stroke-width:0.5;" x1="260" x2="390" y1="288" y2="288"/></g><!--MD5=[0a36e66a645a439e9db5de35c7103aeb]
class signal_slot_interface--><g id="elem_signal_slot_interface"><rect codeLine="26" fill="#F1F1F1" height="48" id="signal_slot_interface" rx="2.5" ry="2.5" style="stroke:#181818;stroke-width:0.5;" width="176" x="426" y="248"/><ellipse cx="441" cy="264" fill="#B1B1B1" rx="11" ry="11" style="stroke:#181818;stroke-width:1.0;"/><path d="M437.4277,260.2651 L437.4277,258.1069 L444.8071,258.1069 L444.8071,260.2651 L442.3418,260.2651 L442.3418,268.3418 L444.8071,268.3418 L444.8071,270.5 L437.4277,270.5 L437.4277,268.3418 L439.8931,268.3418 L439.8931,260.2651 Z " fill="#000000"/><text fill="#000000" font-family="sans-serif" font-size="14" font-style="italic" lengthAdjust="spacing" textLength="144" x="455" y="269.291">Signal-Slot-Interface</text><line style="stroke:#181818;stroke-width:0.5;" x1="427" x2="601" y1="280" y2="280"/><line style="stroke:#181818;stroke-width:0.5;" x1="427" x2="601" y1="288" y2="288"/></g><!--MD5=[b9b2ef7fde3d52ebce7725399c86e14f]
class file_interface--><g id="elem_file_interface"><rect codeLine="30" fill="#F1F1F1" height="48" id="file_interface" rx="2.5" ry="2.5" style="stroke:#181818;stroke-width:0.5;" width="124" x="637" y="248"/><ellipse cx="652" cy="264" fill="#B1B1B1" rx="11" ry="11" style="stroke:#181818;stroke-width:1.0;"/><path d="M648.4277,260.2651 L648.4277,258.1069 L655.8071,258.1069 L655.8071,260.2651 L653.3418,260.2651 L653.3418,268.3418 L655.8071,268.3418 L655.8071,270.5 L648.4277,270.5 L648.4277,268.3418 L650.8931,268.3418 L650.8931,260.2651 Z " fill="#000000"/><text fill="#000000" font-family="sans-serif" font-size="14" font-style="italic" lengthAdjust="spacing" textLength="92" x="666" y="269.291">File-Interface</text><line style="stroke:#181818;stroke-width:0.5;" x1="638" x2="760" y1="280" y2="280"/><line style="stroke:#181818;stroke-width:0.5;" x1="638" x2="760" y1="288" y2="288"/></g><!--MD5=[bdc233c67c89838e5e01a40def02a99f]
class iterator_interface--><g id="elem_iterator_interface"><rect codeLine="37" fill="#F1F1F1" height="48" id="iterator_interface" rx="2.5" ry="2.5" style="stroke:#181818;stroke-width:0.5;" width="160" x="817" y="248"/><ellipse cx="832" cy="264" fill="#B1B1B1" rx="11" ry="11" style="stroke:#181818;stroke-width:1.0;"/><path d="M828.4277,260.2651 L828.4277,258.1069 L835.8071,258.1069 L835.8071,260.2651 L833.3418,260.2651 L833.3418,268.3418 L835.8071,268.3418 L835.8071,270.5 L828.4277,270.5 L828.4277,268.3418 L830.8931,268.3418 L830.8931,260.2651 Z " fill="#000000"/><text fill="#000000" font-family="sans-serif" font-size="14" font-style="italic" lengthAdjust="spacing" textLength="128" x="846" y="269.291">Interator-Interface</text><line style="stroke:#181818;stroke-width:0.5;" x1="818" x2="976" y1="280" y2="280"/><line style="stroke:#181818;stroke-width:0.5;" x1="818" x2="976" y1="288" y2="288"/></g><!--MD5=[6e4117c2c5f7e2be1891b8a2283bf9f5]
class mqtt_interface--><g id="elem_mqtt_interface"><rect codeLine="44" fill="#F1F1F1" height="48" id="mqtt_interface" rx="2.5" ry="2.5" style="stroke:#181818;stroke-width:0.5;" width="141" x="1033.5" y="248"/><ellipse cx="1048.5" cy="264" fill="#B1B1B1" rx="11" ry="11" style="stroke:#181818;stroke-width:1.0;"/><path d="M1044.9277,260.2651 L1044.9277,258.1069 L1052.3071,258.1069 L1052.3071,260.2651 L1049.8418,260.2651 L1049.8418,268.3418 L1052.3071,268.3418 L1052.3071,270.5 L1044.9277,270.5 L1044.9277,268.3418 L1047.3931,268.3418 L1047.3931,260.2651 Z " fill="#000000"/><text fill="#000000" font-family="sans-serif" font-size="14" font-style="italic" lengthAdjust="spacing" textLength="109" x="1062.5" y="269.291">MQTT-Interface</text><line style="stroke:#181818;stroke-width:0.5;" x1="1034.5" x2="1173.5" y1="280" y2="280"/><line style="stroke:#181818;stroke-width:0.5;" x1="1034.5" x2="1173.5" y1="288" y2="288"/></g><!--MD5=[0326624c87ec1a68c7a10960fb185ff2]
entity mcu_top--><g id="elem_mcu_top"><rect fill="#DDDDDD" height="62.9766" rx="2.5" ry="2.5" style="stroke:#181818;stroke-width:0.5;" width="132" x="540" y="85"/><rect fill="#DDDDDD" height="10" style="stroke:#181818;stroke-width:0.5;" width="15" x="652" y="90"/><rect fill="#DDDDDD" height="2" style="stroke:#181818;stroke-width:0.5;" width="4" x="650" y="92"/><rect fill="#DDDDDD" height="2" style="stroke:#181818;stroke-width:0.5;" width="4" x="650" y="96"/><text fill="#000000" font-family="sans-serif" font-size="14" lengthAdjust="spacing" textLength="92" x="555" y="118.5352">«component»</text><text fill="#000000" font-family="sans-serif" font-size="14" lengthAdjust="spacing" textLength="68" x="555" y="135.0234">MCU-TOP</text></g><!--MD5=[4d4b2c87086c4a94be998b0b883dfff4]
link mcu_top to console_interface--><g id="link_mcu_top_console_interface"><path codeLine="57" d="M539.77,127.85 C465.72,140.69 343.05,165.82 243,205 C216.3,215.46 188.22,230.96 166.15,244.31 " fill="none" id="mcu_top-to-console_interface" style="stroke:#181818;stroke-width:1.0;stroke-dasharray:7.0,7.0;"/><polygon fill="#181818" points="161.96,246.87,171.7276,245.6073,166.231,244.2703,167.568,238.7737,161.96,246.87" style="stroke:#181818;stroke-width:1.0;"/><text fill="#000000" font-family="sans-serif" font-size="13" lengthAdjust="spacing" textLength="49" x="311" y="193.5684">&lt;uses&gt;</text></g><!--MD5=[5bfe52133d084fb771de82acadf0b205]
link mcu_top to task_interface--><g id="link_mcu_top_task_interface"><path codeLine="58" d="M539.64,142.17 C500.44,157.9 450.52,180 409,205 C394.8,213.55 380.28,224.17 367.39,234.38 " fill="none" id="mcu_top-to-task_interface" style="stroke:#181818;stroke-width:1.0;stroke-dasharray:7.0,7.0;"/><polygon fill="none" points="372.08,239.59,352.18,246.85,363.2,228.76,372.08,239.59" style="stroke:#181818;stroke-width:1.0;"/></g><!--MD5=[639964865d3f8718b2437e94485b1722]
link mcu_top to signal_slot_interface--><g id="link_mcu_top_signal_slot_interface"><path codeLine="59" d="M587.6,148.19 C571.15,175.64 547.23,215.55 531.17,242.35 " fill="none" id="mcu_top-to-signal_slot_interface" style="stroke:#181818;stroke-width:1.0;stroke-dasharray:7.0,7.0;"/><polygon fill="#181818" points="528.64,246.57,536.6921,240.8987,531.2062,242.2788,529.8261,236.7928,528.64,246.57" style="stroke:#181818;stroke-width:1.0;"/><text fill="#000000" font-family="sans-serif" font-size="13" lengthAdjust="spacing" textLength="49" x="569" y="193.5684">&lt;uses&gt;</text></g><!--MD5=[800c61e9f92af42fbf1ea937df06e375]
link mcu_top to iterator_interface--><g id="link_mcu_top_iterator_interface"><path codeLine="60" d="M667.57,148.44 C700.21,164.99 740.91,185.85 777,205 C801.1,217.79 827.72,232.38 849.74,244.58 " fill="none" id="mcu_top-to-iterator_interface" style="stroke:#181818;stroke-width:1.0;stroke-dasharray:7.0,7.0;"/><polygon fill="#181818" points="853.91,246.9,847.9852,239.0326,849.5392,244.4718,844.1,246.0258,853.91,246.9" style="stroke:#181818;stroke-width:1.0;"/><text fill="#000000" font-family="sans-serif" font-size="13" lengthAdjust="spacing" textLength="49" x="759" y="193.5684">&lt;uses&gt;</text></g><!--MD5=[98a70d2fce0afceffec4f7582d5e00dd]
link mcu_top to file_interface--><g id="link_mcu_top_file_interface"><path codeLine="61" d="M624.6,148.19 C641.22,175.64 665.41,215.55 681.64,242.35 " fill="none" id="mcu_top-to-file_interface" style="stroke:#181818;stroke-width:1.0;stroke-dasharray:7.0,7.0;"/><polygon fill="#181818" points="684.2,246.57,682.9611,236.7994,681.6107,242.2927,676.1174,240.9422,684.2,246.57" style="stroke:#181818;stroke-width:1.0;"/><text fill="#000000" font-family="sans-serif" font-size="13" lengthAdjust="spacing" textLength="49" x="653" y="193.5684">&lt;uses&gt;</text></g><!--MD5=[783a5efd1987414ad6eaa7f40c44fd7b]
link mcu_top to mqtt_interface--><g id="link_mcu_top_mqtt_interface"><path codeLine="62" d="M672.24,126.01 C750.85,137.56 884.87,161.89 993,205 C1018.43,215.14 1044.85,230.62 1065.53,244.04 " fill="none" id="mcu_top-to-mqtt_interface" style="stroke:#181818;stroke-width:1.0;stroke-dasharray:7.0,7.0;"/><polygon fill="#181818" points="1069.67,246.75,1064.3476,238.4631,1065.4922,244.003,1059.9524,245.1476,1069.67,246.75" style="stroke:#181818;stroke-width:1.0;"/><text fill="#000000" font-family="sans-serif" font-size="13" lengthAdjust="spacing" textLength="49" x="963" y="193.5684">&lt;uses&gt;</text></g><!--MD5=[a5e99807b3159f6aaf9dd572b271a804]
@startuml mcu_top_context_interfaces

'***************************************************************************

skinparam monochrome true
' skinparam linetype ortho

'***************************************************************************

frame "component: MCU-TOP - Structure - Context (Interfaces)" {

'***************************************************************************

    folder "ui" {

        interface console_interface as "Console-Interface" {

        }
    }

    folder "kernel" {

        interface task_interface as "Task-Interface" {

        }

        interface signal_slot_interface as "Signal-Slot-Interface" {

        }

        interface file_interface as "File-Interface" {

        }
    }

    folder "common" {

        interface iterator_interface as "Interator-Interface" {

        }
    }

    folder "protocol" {

        interface mqtt_interface as "MQTT-Interface" {

        }
    }

    folder "modules/mcu_top" {

        component mcu_top #DDDDDD [
            <<component>>
            MCU-TOP
        ]
    }

    mcu_top .down.> console_interface : <uses>
    mcu_top .down.|> task_interface
    mcu_top .down.> signal_slot_interface : <uses>
    mcu_top .down.> iterator_interface : <uses>
    mcu_top .down.> file_interface : <uses>
    mcu_top .down.> mqtt_interface : <uses>

'***************************************************************************

}

'***************************************************************************

@enduml

@startuml mcu_top_context_interfaces


skinparam monochrome true


frame "component: MCU-TOP - Structure - Context (Interfaces)" {


    folder "ui" {

        interface console_interface as "Console-Interface" {

        }
    }

    folder "kernel" {

        interface task_interface as "Task-Interface" {

        }

        interface signal_slot_interface as "Signal-Slot-Interface" {

        }

        interface file_interface as "File-Interface" {

        }
    }

    folder "common" {

        interface iterator_interface as "Interator-Interface" {

        }
    }

    folder "protocol" {

        interface mqtt_interface as "MQTT-Interface" {

        }
    }

    folder "modules/mcu_top" {

        component mcu_top #DDDDDD [
            <<component>>
            MCU-TOP
        ]
    }

    mcu_top .down.> console_interface : <uses>
    mcu_top .down.|> task_interface
    mcu_top .down.> signal_slot_interface : <uses>
    mcu_top .down.> iterator_interface : <uses>
    mcu_top .down.> file_interface : <uses>
    mcu_top .down.> mqtt_interface : <uses>


}


@enduml

PlantUML version 1.2022.7(Mon Aug 22 19:01:30 CEST 2022)
(GPL source distribution)
Java Runtime: OpenJDK Runtime Environment
JVM: OpenJDK 64-Bit Server VM
Default Encoding: UTF-8
Language: de
Country: DE
--></g></svg>